<svg xmlns="http://www.w3.org/2000/svg" xmlns:xlink="http://www.w3.org/1999/xlink" zoomAndPan="magnify" preserveAspectRatio="xMidYMid meet" version="1.0" viewBox="112.52 122.72 149.98 122.73"><defs><clipPath id="c3c1ab73cf"><path d="M 112.496094 122.742188 L 262.496094 122.742188 L 262.496094 245.742188 L 112.496094 245.742188 Z M 112.496094 122.742188 " clip-rule="nonzero"/></clipPath><clipPath id="dcfff82c27"><path d="M 112.496094 122.742188 L 140 122.742188 L 140 178 L 112.496094 178 Z M 112.496094 122.742188 " clip-rule="nonzero"/></clipPath><clipPath id="88c1ae0b14"><path d="M 180 231 L 195 231 L 195 245.742188 L 180 245.742188 Z M 180 231 " clip-rule="nonzero"/></clipPath><clipPath id="1cc78db261"><path d="M 235 122.742188 L 262.496094 122.742188 L 262.496094 178 L 235 178 Z M 235 122.742188 " clip-rule="nonzero"/></clipPath></defs><g clip-path="url(#c3c1ab73cf)"><path fill="#000000" d="M 194.3125 231.800781 L 207.949219 231.800781 L 207.949219 218.171875 L 221.574219 218.171875 L 221.574219 204.527344 L 235.203125 204.527344 L 235.203125 190.898438 L 248.847656 190.898438 L 248.847656 177.273438 L 262.476562 177.273438 L 262.476562 122.742188 L 248.847656 122.742188 L 248.847656 136.378906 L 235.203125 136.378906 L 235.203125 150.007812 L 221.574219 150.007812 L 221.574219 163.636719 L 207.949219 163.636719 L 207.949219 177.273438 L 194.3125 177.273438 L 194.3125 190.898438 L 180.675781 190.898438 L 180.675781 177.273438 L 167.058594 177.273438 L 167.058594 163.636719 L 153.410156 163.636719 L 153.410156 150.007812 L 139.792969 150.007812 L 139.792969 136.378906 L 126.164062 136.378906 L 126.164062 122.742188 L 112.519531 122.742188 L 112.519531 177.273438 L 126.164062 177.273438 L 126.164062 190.898438 L 139.792969 190.898438 L 139.792969 204.527344 L 153.410156 204.527344 L 153.410156 218.171875 L 167.058594 218.171875 L 167.058594 231.800781 L 180.675781 231.800781 L 180.675781 245.425781 L 194.3125 245.425781 Z M 194.3125 231.800781 " fill-opacity="1" fill-rule="nonzero"/></g><path fill="#a492a9" d="M 194.3125 218.171875 L 207.949219 218.171875 L 207.949219 204.527344 L 221.574219 204.527344 L 221.574219 190.898438 L 235.203125 190.898438 L 235.203125 177.273438 L 248.847656 177.273438 L 248.847656 150.007812 L 235.203125 150.007812 L 235.203125 163.636719 L 221.574219 163.636719 L 221.574219 177.273438 L 207.949219 177.273438 L 207.949219 190.898438 L 194.3125 190.898438 L 194.3125 204.527344 L 180.675781 204.527344 L 180.675781 190.898438 L 167.058594 190.898438 L 167.058594 177.273438 L 153.410156 177.273438 L 153.410156 163.636719 L 139.792969 163.636719 L 139.792969 150.007812 L 126.164062 150.007812 L 126.164062 177.273438 L 139.792969 177.273438 L 139.792969 190.898438 L 153.410156 190.898438 L 153.410156 204.527344 L 167.058594 204.527344 L 167.058594 218.171875 L 180.675781 218.171875 L 180.675781 231.800781 L 194.3125 231.800781 Z M 194.3125 218.171875 " fill-opacity="1" fill-rule="nonzero"/><path fill="#000000" d="M 194.3125 204.527344 L 194.3125 190.898438 L 180.675781 190.898438 L 180.675781 204.527344 Z M 194.3125 204.527344 " fill-opacity="1" fill-rule="nonzero"/><path fill="#000000" d="M 180.675781 190.898438 L 180.675781 177.273438 L 167.058594 177.273438 L 167.058594 190.898438 Z M 180.675781 190.898438 " fill-opacity="1" fill-rule="nonzero"/><path fill="#000000" d="M 207.949219 177.273438 L 194.3125 177.273438 L 194.3125 190.898438 L 207.949219 190.898438 Z M 207.949219 177.273438 " fill-opacity="1" fill-rule="nonzero"/><path fill="#000000" d="M 167.058594 177.273438 L 167.058594 163.636719 L 153.410156 163.636719 L 153.410156 177.273438 Z M 167.058594 177.273438 " fill-opacity="1" fill-rule="nonzero"/><path fill="#000000" d="M 221.574219 163.636719 L 207.949219 163.636719 L 207.949219 177.273438 L 221.574219 177.273438 Z M 221.574219 163.636719 " fill-opacity="1" fill-rule="nonzero"/><path fill="#000000" d="M 153.410156 163.636719 L 153.410156 150.007812 L 139.792969 150.007812 L 139.792969 163.636719 Z M 153.410156 163.636719 " fill-opacity="1" fill-rule="nonzero"/><g clip-path="url(#dcfff82c27)"><path fill="#000000" d="M 126.164062 150.007812 L 139.792969 150.007812 L 139.792969 136.378906 L 126.164062 136.378906 L 126.164062 122.742188 L 112.519531 122.742188 L 112.519531 177.273438 L 126.164062 177.273438 Z M 126.164062 150.007812 " fill-opacity="1" fill-rule="nonzero"/></g><path fill="#000000" d="M 126.164062 177.273438 L 126.164062 190.898438 L 139.792969 190.898438 L 139.792969 177.273438 Z M 126.164062 177.273438 " fill-opacity="1" fill-rule="nonzero"/><path fill="#000000" d="M 139.792969 190.898438 L 139.792969 204.527344 L 153.410156 204.527344 L 153.410156 190.898438 Z M 139.792969 190.898438 " fill-opacity="1" fill-rule="nonzero"/><path fill="#000000" d="M 153.410156 204.527344 L 153.410156 218.171875 L 167.058594 218.171875 L 167.058594 204.527344 Z M 153.410156 204.527344 " fill-opacity="1" fill-rule="nonzero"/><path fill="#000000" d="M 167.058594 218.171875 L 167.058594 231.800781 L 180.675781 231.800781 L 180.675781 218.171875 Z M 167.058594 218.171875 " fill-opacity="1" fill-rule="nonzero"/><g clip-path="url(#88c1ae0b14)"><path fill="#000000" d="M 194.3125 231.800781 L 180.675781 231.800781 L 180.675781 245.425781 L 194.3125 245.425781 Z M 194.3125 231.800781 " fill-opacity="1" fill-rule="nonzero"/></g><path fill="#000000" d="M 194.3125 231.800781 L 207.949219 231.800781 L 207.949219 218.171875 L 194.3125 218.171875 Z M 194.3125 231.800781 " fill-opacity="1" fill-rule="nonzero"/><path fill="#000000" d="M 207.949219 218.171875 L 221.574219 218.171875 L 221.574219 204.527344 L 207.949219 204.527344 Z M 207.949219 218.171875 " fill-opacity="1" fill-rule="nonzero"/><g clip-path="url(#1cc78db261)"><path fill="#000000" d="M 248.847656 163.636719 L 248.847656 177.273438 L 262.476562 177.273438 L 262.476562 122.742188 L 248.847656 122.742188 L 248.847656 136.378906 L 235.203125 136.378906 L 235.203125 150.007812 L 248.847656 150.007812 Z M 248.847656 163.636719 " fill-opacity="1" fill-rule="nonzero"/></g><path fill="#000000" d="M 235.203125 190.898438 L 248.847656 190.898438 L 248.847656 177.273438 L 235.203125 177.273438 Z M 235.203125 190.898438 " fill-opacity="1" fill-rule="nonzero"/><path fill="#000000" d="M 221.574219 204.527344 L 235.203125 204.527344 L 235.203125 190.898438 L 221.574219 190.898438 Z M 221.574219 204.527344 " fill-opacity="1" fill-rule="nonzero"/><path fill="#000000" d="M 235.203125 150.007812 L 221.574219 150.007812 L 221.574219 163.636719 L 235.203125 163.636719 Z M 235.203125 150.007812 " fill-opacity="1" fill-rule="nonzero"/></svg>