<svg xmlns="http://www.w3.org/2000/svg" xmlns:xlink="http://www.w3.org/1999/xlink" zoomAndPan="magnify" preserveAspectRatio="xMidYMid meet" version="1.0" viewBox="167.3 165.62 40.52 54.78"><defs><clipPath id="9f6badf6e8"><path d="M 167.308594 165.632812 L 207.808594 165.632812 L 207.808594 220.382812 L 167.308594 220.382812 Z M 167.308594 165.632812 " clip-rule="nonzero"/></clipPath></defs><g clip-path="url(#9f6badf6e8)"><path fill="#ffffff" d="M 178.878906 220.230469 L 196.882812 220.230469 L 196.882812 191.746094 L 207.640625 191.746094 L 207.640625 189.980469 L 204.269531 189.980469 L 204.269531 185.816406 L 200.902344 185.816406 L 200.902344 181.652344 L 197.792969 181.652344 L 197.53125 181.25 L 197.53125 177.488281 L 197.382812 177.488281 L 197.382812 177.21875 L 194.011719 177.21875 L 194.011719 173.054688 L 190.640625 173.054688 L 190.640625 165.800781 L 184.625 165.800781 L 184.625 173.457031 L 181.109375 173.457031 L 181.105469 177.21875 L 177.734375 177.21875 L 177.734375 177.488281 L 177.589844 177.488281 L 177.589844 181.25 L 177.328125 181.652344 L 174.21875 181.652344 L 174.21875 185.816406 L 170.847656 185.816406 L 170.847656 189.980469 L 167.476562 189.980469 L 167.476562 191.746094 L 178.878906 191.746094 L 178.878906 220.230469 " fill-opacity="1" fill-rule="nonzero"/><path fill="#040606" d="M 178.878906 220.230469 L 178.878906 220.390625 L 196.882812 220.390625 C 196.925781 220.390625 196.96875 220.375 197 220.34375 C 197.027344 220.316406 197.046875 220.273438 197.046875 220.230469 L 197.046875 191.90625 L 207.640625 191.90625 C 207.683594 191.90625 207.726562 191.890625 207.757812 191.859375 C 207.785156 191.828125 207.804688 191.789062 207.804688 191.746094 L 207.804688 189.980469 C 207.804688 189.9375 207.785156 189.898438 207.757812 189.867188 C 207.726562 189.835938 207.683594 189.820312 207.640625 189.820312 L 204.433594 189.820312 L 204.433594 185.816406 C 204.433594 185.773438 204.414062 185.734375 204.386719 185.703125 C 204.355469 185.671875 204.3125 185.65625 204.269531 185.65625 L 201.0625 185.65625 L 201.0625 181.652344 C 201.0625 181.609375 201.042969 181.570312 201.015625 181.539062 C 200.984375 181.507812 200.941406 181.492188 200.902344 181.492188 L 197.878906 181.492188 L 197.691406 181.203125 L 197.691406 177.488281 C 197.691406 177.445312 197.675781 177.402344 197.644531 177.375 C 197.613281 177.34375 197.570312 177.324219 197.53125 177.324219 L 197.382812 177.324219 L 197.382812 177.488281 L 197.542969 177.488281 L 197.546875 177.21875 C 197.546875 177.175781 197.527344 177.136719 197.496094 177.105469 C 197.46875 177.074219 197.425781 177.058594 197.382812 177.058594 L 194.175781 177.058594 L 194.175781 173.054688 C 194.175781 173.011719 194.15625 172.96875 194.125 172.941406 C 194.097656 172.910156 194.054688 172.894531 194.011719 172.894531 L 190.804688 172.894531 L 190.800781 165.800781 C 190.800781 165.710938 190.726562 165.636719 190.640625 165.636719 L 184.625 165.640625 C 184.535156 165.640625 184.460938 165.710938 184.460938 165.800781 L 184.460938 173.296875 L 181.109375 173.296875 C 181.019531 173.296875 180.945312 173.367188 180.945312 173.457031 L 180.945312 177.058594 L 177.734375 177.058594 C 177.691406 177.058594 177.652344 177.074219 177.621094 177.105469 C 177.589844 177.136719 177.574219 177.175781 177.574219 177.21875 L 177.574219 177.488281 L 177.734375 177.488281 L 177.734375 177.324219 L 177.589844 177.324219 C 177.546875 177.324219 177.503906 177.34375 177.476562 177.375 C 177.445312 177.402344 177.429688 177.445312 177.429688 177.488281 L 177.429688 181.203125 L 177.238281 181.492188 L 174.21875 181.492188 C 174.175781 181.492188 174.136719 181.507812 174.105469 181.539062 C 174.074219 181.570312 174.058594 181.609375 174.058594 181.652344 L 174.058594 185.65625 L 170.847656 185.65625 C 170.804688 185.65625 170.765625 185.671875 170.734375 185.703125 C 170.703125 185.734375 170.6875 185.773438 170.6875 185.816406 L 170.6875 189.820312 L 167.476562 189.820312 C 167.433594 189.820312 167.394531 189.835938 167.363281 189.867188 C 167.332031 189.898438 167.316406 189.9375 167.316406 189.980469 L 167.316406 191.746094 C 167.316406 191.789062 167.332031 191.828125 167.363281 191.859375 C 167.394531 191.890625 167.433594 191.90625 167.476562 191.90625 L 178.714844 191.90625 L 178.714844 220.230469 C 178.714844 220.273438 178.734375 220.316406 178.761719 220.34375 C 178.792969 220.375 178.835938 220.390625 178.878906 220.390625 L 178.878906 220.230469 L 179.039062 220.230469 L 179.039062 191.746094 C 179.039062 191.703125 179.023438 191.660156 178.992188 191.628906 C 178.960938 191.601562 178.921875 191.582031 178.878906 191.582031 L 167.640625 191.582031 L 167.640625 190.144531 L 170.847656 190.144531 C 170.890625 190.144531 170.933594 190.125 170.960938 190.097656 C 170.992188 190.066406 171.007812 190.023438 171.007812 189.980469 L 171.007812 185.980469 L 174.21875 185.980469 C 174.261719 185.980469 174.304688 185.960938 174.332031 185.933594 C 174.363281 185.902344 174.378906 185.859375 174.378906 185.816406 L 174.378906 181.8125 L 177.328125 181.8125 C 177.382812 181.8125 177.433594 181.785156 177.464844 181.742188 L 177.726562 181.335938 C 177.742188 181.3125 177.75 181.28125 177.75 181.25 L 177.75 177.488281 L 177.589844 177.488281 L 177.589844 177.648438 L 177.734375 177.648438 C 177.777344 177.648438 177.820312 177.632812 177.851562 177.601562 C 177.882812 177.570312 177.898438 177.53125 177.898438 177.488281 L 177.898438 177.382812 L 181.105469 177.382812 C 181.148438 177.382812 181.191406 177.363281 181.222656 177.335938 C 181.25 177.304688 181.269531 177.261719 181.269531 177.21875 L 181.269531 173.621094 L 184.625 173.621094 C 184.667969 173.621094 184.707031 173.601562 184.738281 173.574219 C 184.769531 173.542969 184.785156 173.5 184.785156 173.457031 L 184.785156 165.964844 L 190.476562 165.960938 L 190.480469 173.054688 C 190.480469 173.097656 190.496094 173.140625 190.527344 173.167969 C 190.558594 173.199219 190.597656 173.214844 190.640625 173.214844 L 193.851562 173.214844 L 193.851562 177.21875 C 193.851562 177.261719 193.867188 177.304688 193.898438 177.335938 C 193.929688 177.363281 193.96875 177.382812 194.011719 177.382812 L 197.222656 177.382812 L 197.222656 177.488281 C 197.21875 177.53125 197.238281 177.570312 197.269531 177.601562 C 197.296875 177.632812 197.339844 177.648438 197.382812 177.648438 L 197.53125 177.648438 L 197.53125 177.488281 L 197.367188 177.488281 L 197.367188 181.25 C 197.367188 181.28125 197.375 181.3125 197.394531 181.335938 L 197.65625 181.742188 C 197.6875 181.785156 197.738281 181.8125 197.792969 181.8125 L 200.738281 181.8125 L 200.738281 185.816406 C 200.738281 185.859375 200.757812 185.902344 200.785156 185.933594 C 200.816406 185.960938 200.859375 185.980469 200.902344 185.980469 L 204.109375 185.980469 L 204.109375 189.980469 C 204.109375 190.023438 204.125 190.066406 204.15625 190.097656 C 204.1875 190.125 204.226562 190.144531 204.269531 190.144531 L 207.480469 190.144531 L 207.480469 191.582031 L 196.882812 191.582031 C 196.84375 191.582031 196.800781 191.601562 196.769531 191.628906 C 196.738281 191.660156 196.722656 191.703125 196.722656 191.746094 L 196.722656 220.070312 L 178.878906 220.070312 L 178.878906 220.230469 L 179.039062 220.230469 L 178.878906 220.230469 " fill-opacity="1" fill-rule="nonzero"/></g><path fill="#040606" d="M 193.761719 191.472656 L 193.761719 218.21875 L 195.511719 218.21875 L 195.511719 191.472656 L 193.761719 191.472656 " fill-opacity="1" fill-rule="nonzero"/><path fill="#040606" d="M 190.070312 173.378906 L 189.984375 175.996094 L 192.261719 176.027344 L 192.175781 178.648438 L 194.453125 178.679688 L 194.367188 181.296875 L 196.644531 181.328125 L 196.558594 183.945312 L 198.835938 183.976562 L 198.75 186.597656 L 201.027344 186.628906 L 200.945312 189.179688 L 203.425781 189.214844 L 203.386719 190.453125 L 199.246094 190.453125 L 199.285156 189.292969 L 196.804688 189.257812 L 196.886719 186.636719 L 194.613281 186.609375 L 194.695312 183.988281 L 192.421875 183.957031 L 192.503906 181.339844 L 190.230469 181.308594 L 190.3125 178.6875 L 188.039062 178.660156 L 188.121094 176.039062 L 185.847656 176.007812 L 185.933594 173.320312 L 190.070312 173.378906 " fill-opacity="1" fill-rule="nonzero"/></svg>