<svg xmlns="http://www.w3.org/2000/svg" xmlns:xlink="http://www.w3.org/1999/xlink" zoomAndPan="magnify" preserveAspectRatio="xMidYMid meet" version="1.0" viewBox="167.18 165.43 40.52 54.77"><defs><clipPath id="c1b86adaa7"><path d="M 167.179688 165.445312 L 207.679688 165.445312 L 207.679688 220.195312 L 167.179688 220.195312 Z M 167.179688 165.445312 " clip-rule="nonzero"/></clipPath></defs><g clip-path="url(#c1b86adaa7)"><path fill="#ffffff" d="M 196.113281 165.597656 L 178.105469 165.597656 L 178.105469 194.082031 L 167.347656 194.082031 L 167.347656 195.847656 L 170.71875 195.847656 L 170.71875 200.011719 L 174.089844 200.011719 L 174.089844 204.175781 L 177.199219 204.175781 L 177.460938 204.578125 L 177.460938 208.339844 L 177.609375 208.339844 L 177.605469 208.609375 L 180.976562 208.609375 L 180.976562 212.773438 L 184.347656 212.773438 L 184.351562 220.027344 L 190.367188 220.027344 L 190.367188 212.371094 L 193.882812 212.371094 L 193.882812 208.609375 L 197.253906 208.609375 L 197.253906 208.339844 L 197.402344 208.339844 L 197.402344 204.578125 L 197.664062 204.175781 L 200.769531 204.175781 L 200.769531 200.011719 L 204.140625 200.011719 L 204.140625 195.847656 L 207.511719 195.847656 L 207.511719 194.082031 L 196.113281 194.082031 L 196.113281 165.597656 " fill-opacity="1" fill-rule="nonzero"/><path fill="#040606" d="M 196.113281 165.597656 L 196.113281 165.433594 L 178.105469 165.433594 C 178.0625 165.433594 178.023438 165.453125 177.992188 165.484375 C 177.960938 165.511719 177.945312 165.554688 177.945312 165.597656 L 177.945312 193.921875 L 167.347656 193.921875 C 167.304688 193.921875 167.265625 193.9375 167.234375 193.96875 C 167.203125 194 167.1875 194.039062 167.1875 194.082031 L 167.1875 195.847656 C 167.1875 195.886719 167.203125 195.929688 167.234375 195.960938 C 167.265625 195.992188 167.304688 196.007812 167.347656 196.007812 L 170.558594 196.007812 L 170.558594 200.011719 C 170.558594 200.054688 170.574219 200.09375 170.605469 200.125 C 170.636719 200.15625 170.675781 200.171875 170.71875 200.171875 L 173.929688 200.171875 L 173.929688 204.175781 C 173.929688 204.21875 173.945312 204.257812 173.976562 204.289062 C 174.003906 204.320312 174.046875 204.335938 174.089844 204.335938 L 177.109375 204.335938 L 177.300781 204.625 L 177.300781 208.339844 C 177.300781 208.382812 177.316406 208.425781 177.347656 208.453125 C 177.375 208.484375 177.417969 208.5 177.460938 208.5 L 177.609375 208.5 L 177.609375 208.339844 L 177.445312 208.339844 L 177.445312 208.605469 C 177.445312 208.652344 177.460938 208.691406 177.492188 208.722656 C 177.523438 208.753906 177.5625 208.769531 177.605469 208.769531 L 180.816406 208.769531 L 180.816406 212.773438 C 180.816406 212.816406 180.832031 212.855469 180.863281 212.886719 C 180.894531 212.917969 180.9375 212.933594 180.976562 212.933594 L 184.1875 212.933594 L 184.1875 220.027344 C 184.1875 220.117188 184.261719 220.1875 184.351562 220.1875 L 190.367188 220.1875 C 190.457031 220.1875 190.527344 220.117188 190.527344 220.027344 L 190.527344 212.53125 L 193.882812 212.53125 C 193.972656 212.53125 194.046875 212.460938 194.046875 212.371094 L 194.046875 208.769531 L 197.253906 208.769531 C 197.296875 208.769531 197.339844 208.753906 197.367188 208.722656 C 197.398438 208.691406 197.414062 208.652344 197.414062 208.609375 L 197.414062 208.339844 L 197.253906 208.339844 L 197.253906 208.5 L 197.402344 208.5 C 197.441406 208.5 197.484375 208.484375 197.515625 208.453125 C 197.546875 208.425781 197.5625 208.382812 197.5625 208.339844 L 197.5625 204.625 L 197.75 204.335938 L 200.769531 204.335938 C 200.8125 204.335938 200.855469 204.320312 200.886719 204.289062 C 200.917969 204.257812 200.933594 204.21875 200.933594 204.175781 L 200.933594 200.171875 L 204.140625 200.171875 C 204.183594 200.171875 204.226562 200.15625 204.257812 200.125 C 204.285156 200.09375 204.304688 200.054688 204.304688 200.011719 L 204.304688 196.007812 L 207.511719 196.007812 C 207.554688 196.007812 207.597656 195.992188 207.628906 195.960938 C 207.65625 195.929688 207.675781 195.886719 207.675781 195.847656 L 207.675781 194.082031 C 207.675781 194.039062 207.65625 194 207.628906 193.96875 C 207.597656 193.9375 207.554688 193.921875 207.511719 193.921875 L 196.273438 193.921875 L 196.273438 165.597656 C 196.273438 165.554688 196.257812 165.511719 196.226562 165.484375 C 196.195312 165.453125 196.15625 165.433594 196.113281 165.433594 L 196.113281 165.597656 L 195.949219 165.597656 L 195.949219 194.082031 C 195.949219 194.125 195.96875 194.167969 196 194.195312 C 196.027344 194.226562 196.070312 194.246094 196.113281 194.246094 L 207.351562 194.246094 L 207.351562 195.683594 L 204.140625 195.683594 C 204.097656 195.683594 204.058594 195.703125 204.027344 195.730469 C 203.996094 195.761719 203.980469 195.804688 203.980469 195.847656 L 203.980469 199.847656 L 200.769531 199.847656 C 200.726562 199.847656 200.6875 199.867188 200.65625 199.894531 C 200.625 199.925781 200.609375 199.96875 200.609375 200.011719 L 200.609375 204.011719 L 197.664062 204.011719 C 197.609375 204.011719 197.558594 204.042969 197.527344 204.085938 L 197.265625 204.488281 C 197.246094 204.515625 197.238281 204.546875 197.238281 204.578125 L 197.238281 208.339844 L 197.402344 208.339844 L 197.402344 208.179688 L 197.253906 208.179688 C 197.210938 208.179688 197.171875 208.195312 197.140625 208.226562 C 197.109375 208.257812 197.09375 208.296875 197.09375 208.339844 L 197.09375 208.445312 L 193.882812 208.445312 C 193.839844 208.445312 193.800781 208.464844 193.769531 208.492188 C 193.738281 208.523438 193.722656 208.566406 193.722656 208.609375 L 193.722656 212.207031 L 190.367188 212.207031 C 190.324219 212.207031 190.28125 212.226562 190.253906 212.253906 C 190.222656 212.285156 190.203125 212.328125 190.203125 212.371094 L 190.203125 219.863281 L 184.511719 219.867188 L 184.511719 212.773438 C 184.511719 212.730469 184.492188 212.6875 184.464844 212.660156 C 184.433594 212.628906 184.390625 212.609375 184.347656 212.609375 L 181.140625 212.609375 L 181.140625 208.609375 C 181.140625 208.566406 181.121094 208.523438 181.09375 208.492188 C 181.0625 208.464844 181.019531 208.445312 180.976562 208.445312 L 177.769531 208.445312 L 177.769531 208.339844 C 177.769531 208.296875 177.753906 208.257812 177.722656 208.226562 C 177.691406 208.195312 177.652344 208.179688 177.609375 208.179688 L 177.460938 208.179688 L 177.460938 208.339844 L 177.621094 208.339844 L 177.621094 204.578125 C 177.621094 204.546875 177.613281 204.515625 177.597656 204.488281 L 177.335938 204.085938 C 177.304688 204.042969 177.253906 204.011719 177.199219 204.011719 L 174.25 204.011719 L 174.25 200.011719 C 174.25 199.96875 174.234375 199.925781 174.203125 199.894531 C 174.175781 199.867188 174.132812 199.847656 174.089844 199.847656 L 170.882812 199.847656 L 170.882812 195.847656 C 170.882812 195.804688 170.863281 195.761719 170.832031 195.730469 C 170.804688 195.703125 170.761719 195.683594 170.71875 195.683594 L 167.511719 195.683594 L 167.511719 194.246094 L 178.105469 194.246094 C 178.148438 194.246094 178.191406 194.226562 178.21875 194.195312 C 178.25 194.167969 178.269531 194.125 178.269531 194.082031 L 178.269531 165.757812 L 196.113281 165.757812 L 196.113281 165.597656 L 195.949219 165.597656 L 196.113281 165.597656 " fill-opacity="1" fill-rule="nonzero"/></g><path fill="#040606" d="M 181.226562 194.355469 L 181.226562 167.609375 L 179.480469 167.609375 L 179.480469 194.355469 L 181.226562 194.355469 " fill-opacity="1" fill-rule="nonzero"/><path fill="#040606" d="M 184.921875 212.449219 L 185.003906 209.832031 L 182.730469 209.800781 L 182.8125 207.179688 L 180.539062 207.148438 L 180.621094 204.53125 L 178.347656 204.5 L 178.429688 201.882812 L 176.15625 201.851562 L 176.238281 199.230469 L 173.964844 199.199219 L 174.046875 196.648438 L 171.5625 196.613281 L 171.601562 195.375 L 175.742188 195.375 L 175.703125 196.535156 L 178.1875 196.570312 L 178.101562 199.1875 L 180.378906 199.21875 L 180.292969 201.839844 L 182.570312 201.871094 L 182.484375 204.488281 L 184.761719 204.519531 L 184.675781 207.140625 L 186.953125 207.167969 L 186.867188 209.789062 L 189.144531 209.820312 L 189.058594 212.503906 L 184.921875 212.449219 " fill-opacity="1" fill-rule="nonzero"/></svg>