<svg xmlns="http://www.w3.org/2000/svg" xmlns:xlink="http://www.w3.org/1999/xlink" zoomAndPan="magnify" preserveAspectRatio="xMidYMid meet" version="1.0" viewBox="112.52 122.72 149.98 122.73"><defs><clipPath id="2b8222f3a0"><path d="M 112.496094 122.425781 L 262.496094 122.425781 L 262.496094 245.425781 L 112.496094 245.425781 Z M 112.496094 122.425781 " clip-rule="nonzero"/></clipPath><clipPath id="8aa9fc3119"><path d="M 235 190 L 262.496094 190 L 262.496094 245.425781 L 235 245.425781 Z M 235 190 " clip-rule="nonzero"/></clipPath><clipPath id="bfecbd770c"><path d="M 180 122.425781 L 195 122.425781 L 195 137 L 180 137 Z M 180 122.425781 " clip-rule="nonzero"/></clipPath><clipPath id="3aab0bf987"><path d="M 112.496094 190 L 140 190 L 140 245.425781 L 112.496094 245.425781 Z M 112.496094 190 " clip-rule="nonzero"/></clipPath></defs><g clip-path="url(#2b8222f3a0)"><path fill="#000000" d="M 180.683594 136.371094 L 167.046875 136.371094 L 167.046875 150 L 153.421875 150 L 153.421875 163.644531 L 139.792969 163.644531 L 139.792969 177.273438 L 126.148438 177.273438 L 126.148438 190.898438 L 112.519531 190.898438 L 112.519531 245.425781 L 126.148438 245.425781 L 126.148438 231.792969 L 139.792969 231.792969 L 139.792969 218.164062 L 153.421875 218.164062 L 153.421875 204.535156 L 167.046875 204.535156 L 167.046875 190.898438 L 180.683594 190.898438 L 180.683594 177.273438 L 194.320312 177.273438 L 194.320312 190.898438 L 207.9375 190.898438 L 207.9375 204.535156 L 221.585938 204.535156 L 221.585938 218.164062 L 235.203125 218.164062 L 235.203125 231.792969 L 248.832031 231.792969 L 248.832031 245.425781 L 262.476562 245.425781 L 262.476562 190.898438 L 248.832031 190.898438 L 248.832031 177.273438 L 235.203125 177.273438 L 235.203125 163.644531 L 221.585938 163.644531 L 221.585938 150 L 207.9375 150 L 207.9375 136.371094 L 194.320312 136.371094 L 194.320312 122.742188 L 180.683594 122.742188 Z M 180.683594 136.371094 " fill-opacity="1" fill-rule="nonzero"/></g><path fill="#a492a9" d="M 180.683594 150 L 167.046875 150 L 167.046875 163.644531 L 153.421875 163.644531 L 153.421875 177.273438 L 139.792969 177.273438 L 139.792969 190.898438 L 126.148438 190.898438 L 126.148438 218.164062 L 139.792969 218.164062 L 139.792969 204.535156 L 153.421875 204.535156 L 153.421875 190.898438 L 167.046875 190.898438 L 167.046875 177.273438 L 180.683594 177.273438 L 180.683594 163.644531 L 194.320312 163.644531 L 194.320312 177.273438 L 207.9375 177.273438 L 207.9375 190.898438 L 221.585938 190.898438 L 221.585938 204.535156 L 235.203125 204.535156 L 235.203125 218.164062 L 248.832031 218.164062 L 248.832031 190.898438 L 235.203125 190.898438 L 235.203125 177.273438 L 221.585938 177.273438 L 221.585938 163.644531 L 207.9375 163.644531 L 207.9375 150 L 194.320312 150 L 194.320312 136.371094 L 180.683594 136.371094 Z M 180.683594 150 " fill-opacity="1" fill-rule="nonzero"/><path fill="#000000" d="M 180.683594 163.644531 L 180.683594 177.273438 L 194.320312 177.273438 L 194.320312 163.644531 Z M 180.683594 163.644531 " fill-opacity="1" fill-rule="nonzero"/><path fill="#000000" d="M 194.320312 177.273438 L 194.320312 190.898438 L 207.9375 190.898438 L 207.9375 177.273438 Z M 194.320312 177.273438 " fill-opacity="1" fill-rule="nonzero"/><path fill="#000000" d="M 167.046875 190.898438 L 180.683594 190.898438 L 180.683594 177.273438 L 167.046875 177.273438 Z M 167.046875 190.898438 " fill-opacity="1" fill-rule="nonzero"/><path fill="#000000" d="M 207.9375 190.898438 L 207.9375 204.535156 L 221.585938 204.535156 L 221.585938 190.898438 Z M 207.9375 190.898438 " fill-opacity="1" fill-rule="nonzero"/><path fill="#000000" d="M 153.421875 204.535156 L 167.046875 204.535156 L 167.046875 190.898438 L 153.421875 190.898438 Z M 153.421875 204.535156 " fill-opacity="1" fill-rule="nonzero"/><path fill="#000000" d="M 221.585938 204.535156 L 221.585938 218.164062 L 235.203125 218.164062 L 235.203125 204.535156 Z M 221.585938 204.535156 " fill-opacity="1" fill-rule="nonzero"/><g clip-path="url(#8aa9fc3119)"><path fill="#000000" d="M 248.832031 218.164062 L 235.203125 218.164062 L 235.203125 231.792969 L 248.832031 231.792969 L 248.832031 245.425781 L 262.476562 245.425781 L 262.476562 190.898438 L 248.832031 190.898438 Z M 248.832031 218.164062 " fill-opacity="1" fill-rule="nonzero"/></g><path fill="#000000" d="M 248.832031 190.898438 L 248.832031 177.273438 L 235.203125 177.273438 L 235.203125 190.898438 Z M 248.832031 190.898438 " fill-opacity="1" fill-rule="nonzero"/><path fill="#000000" d="M 235.203125 177.273438 L 235.203125 163.644531 L 221.585938 163.644531 L 221.585938 177.273438 Z M 235.203125 177.273438 " fill-opacity="1" fill-rule="nonzero"/><path fill="#000000" d="M 221.585938 163.644531 L 221.585938 150 L 207.9375 150 L 207.9375 163.644531 Z M 221.585938 163.644531 " fill-opacity="1" fill-rule="nonzero"/><path fill="#000000" d="M 207.9375 150 L 207.9375 136.371094 L 194.320312 136.371094 L 194.320312 150 Z M 207.9375 150 " fill-opacity="1" fill-rule="nonzero"/><g clip-path="url(#bfecbd770c)"><path fill="#000000" d="M 180.683594 136.371094 L 194.320312 136.371094 L 194.320312 122.742188 L 180.683594 122.742188 Z M 180.683594 136.371094 " fill-opacity="1" fill-rule="nonzero"/></g><path fill="#000000" d="M 180.683594 136.371094 L 167.046875 136.371094 L 167.046875 150 L 180.683594 150 Z M 180.683594 136.371094 " fill-opacity="1" fill-rule="nonzero"/><path fill="#000000" d="M 167.046875 150 L 153.421875 150 L 153.421875 163.644531 L 167.046875 163.644531 Z M 167.046875 150 " fill-opacity="1" fill-rule="nonzero"/><g clip-path="url(#3aab0bf987)"><path fill="#000000" d="M 126.148438 204.535156 L 126.148438 190.898438 L 112.519531 190.898438 L 112.519531 245.425781 L 126.148438 245.425781 L 126.148438 231.792969 L 139.792969 231.792969 L 139.792969 218.164062 L 126.148438 218.164062 Z M 126.148438 204.535156 " fill-opacity="1" fill-rule="nonzero"/></g><path fill="#000000" d="M 139.792969 177.273438 L 126.148438 177.273438 L 126.148438 190.898438 L 139.792969 190.898438 Z M 139.792969 177.273438 " fill-opacity="1" fill-rule="nonzero"/><path fill="#000000" d="M 153.421875 163.644531 L 139.792969 163.644531 L 139.792969 177.273438 L 153.421875 177.273438 Z M 153.421875 163.644531 " fill-opacity="1" fill-rule="nonzero"/><path fill="#000000" d="M 139.792969 218.164062 L 153.421875 218.164062 L 153.421875 204.535156 L 139.792969 204.535156 Z M 139.792969 218.164062 " fill-opacity="1" fill-rule="nonzero"/></svg>