<svg xmlns="http://www.w3.org/2000/svg" xmlns:xlink="http://www.w3.org/1999/xlink" zoomAndPan="magnify" preserveAspectRatio="xMidYMid meet" version="1.0" viewBox="360 180 240 240"><path fill="#fffefd" d="M 405.714844 294.285156 C 412.796875 294.285156 467.1875 294.285156 474.285156 294.285156 C 474.285156 276.238281 474.285156 237.835938 474.285156 225.714844 C 467.015625 225.714844 458.695312 225.714844 451.429688 225.714844 L 451.429688 214.285156 L 440 214.285156 C 440 221.554688 440 229.875 440 237.144531 C 447.269531 237.144531 455.589844 237.144531 462.855469 237.144531 C 462.855469 242.738281 462.855469 277.261719 462.855469 282.855469 C 457.25 282.855469 422.71875 282.855469 417.144531 282.855469 C 417.144531 275.589844 417.144531 267.269531 417.144531 260 C 409.875 260 401.554688 260 394.285156 260 L 394.285156 271.429688 L 405.714844 271.429688 C 405.714844 278.695312 405.714844 287.015625 405.714844 294.285156 " fill-opacity="1" fill-rule="nonzero"/><path fill="#fffefd" d="M 554.285156 305.714844 C 546.933594 305.714844 492.839844 305.714844 485.714844 305.714844 C 485.714844 312.558594 485.714844 367.605469 485.714844 374.285156 C 492.984375 374.285156 501.304688 374.285156 508.570312 374.285156 L 508.570312 385.714844 L 520 385.714844 C 520 378.445312 520 370.125 520 362.855469 C 512.730469 362.855469 504.410156 362.855469 497.144531 362.855469 C 497.144531 357.261719 497.144531 322.738281 497.144531 317.144531 C 499.261719 317.144531 527.792969 317.144531 542.855469 317.144531 C 542.855469 324.410156 542.855469 332.734375 542.855469 340 C 550.125 340 558.445312 340 565.714844 340 L 565.714844 328.570312 L 554.285156 328.570312 C 554.285156 321.304688 554.285156 312.984375 554.285156 305.714844 " fill-opacity="1" fill-rule="nonzero"/><path fill="#fffefd" d="M 508.570312 214.285156 L 508.570312 202.855469 L 497.144531 202.855469 L 497.144531 214.285156 L 508.570312 214.285156 " fill-opacity="1" fill-rule="nonzero"/><path fill="#fffefd" d="M 462.855469 202.855469 L 451.429688 202.855469 L 451.429688 214.285156 L 462.855469 214.285156 L 462.855469 202.855469 " fill-opacity="1" fill-rule="nonzero"/><path fill="#fffefd" d="M 497.144531 202.855469 L 497.144531 191.429688 L 485.714844 191.429688 L 485.714844 202.855469 L 497.144531 202.855469 " fill-opacity="1" fill-rule="nonzero"/><path fill="#fffefd" d="M 474.285156 191.429688 L 462.855469 191.429688 L 462.855469 202.855469 L 474.285156 202.855469 L 474.285156 191.429688 " fill-opacity="1" fill-rule="nonzero"/><path fill="#fffefd" d="M 485.714844 180 L 474.285156 180 L 474.285156 191.429688 L 485.714844 191.429688 L 485.714844 180 " fill-opacity="1" fill-rule="nonzero"/><path fill="#fffefd" d="M 497.144531 397.144531 L 508.570312 397.144531 L 508.570312 385.714844 L 497.144531 385.714844 L 497.144531 397.144531 " fill-opacity="1" fill-rule="nonzero"/><path fill="#fffefd" d="M 451.429688 385.714844 L 451.429688 397.144531 L 462.855469 397.144531 L 462.855469 385.714844 L 451.429688 385.714844 " fill-opacity="1" fill-rule="nonzero"/><path fill="#fffefd" d="M 485.714844 408.570312 L 497.144531 408.570312 L 497.144531 397.144531 L 485.714844 397.144531 L 485.714844 408.570312 " fill-opacity="1" fill-rule="nonzero"/><path fill="#fffefd" d="M 462.855469 397.144531 L 462.855469 408.570312 L 474.285156 408.570312 L 474.285156 397.144531 L 462.855469 397.144531 " fill-opacity="1" fill-rule="nonzero"/><path fill="#fffefd" d="M 474.285156 420 L 485.714844 420 L 485.714844 408.570312 L 474.285156 408.570312 L 474.285156 420 " fill-opacity="1" fill-rule="nonzero"/><path fill="#fffefd" d="M 565.714844 328.570312 L 577.144531 328.570312 L 577.144531 317.144531 L 565.714844 317.144531 L 565.714844 328.570312 " fill-opacity="1" fill-rule="nonzero"/><path fill="#fffefd" d="M 577.144531 282.855469 L 577.144531 271.429688 L 565.714844 271.429688 L 565.714844 282.855469 L 577.144531 282.855469 " fill-opacity="1" fill-rule="nonzero"/><path fill="#fffefd" d="M 577.144531 317.144531 L 588.570312 317.144531 L 588.570312 305.714844 L 577.144531 305.714844 L 577.144531 317.144531 " fill-opacity="1" fill-rule="nonzero"/><path fill="#fffefd" d="M 588.570312 294.285156 L 588.570312 282.855469 L 577.144531 282.855469 L 577.144531 294.285156 L 588.570312 294.285156 " fill-opacity="1" fill-rule="nonzero"/><path fill="#fffefd" d="M 588.570312 294.285156 L 588.570312 305.714844 L 600 305.714844 L 600 294.285156 L 588.570312 294.285156 " fill-opacity="1" fill-rule="nonzero"/><path fill="#fffefd" d="M 382.855469 317.144531 L 382.855469 328.570312 L 394.285156 328.570312 L 394.285156 317.144531 L 382.855469 317.144531 " fill-opacity="1" fill-rule="nonzero"/><path fill="#fffefd" d="M 394.285156 271.429688 L 382.855469 271.429688 L 382.855469 282.855469 L 394.285156 282.855469 L 394.285156 271.429688 " fill-opacity="1" fill-rule="nonzero"/><path fill="#fffefd" d="M 371.429688 305.714844 L 371.429688 317.144531 L 382.855469 317.144531 L 382.855469 305.714844 L 371.429688 305.714844 " fill-opacity="1" fill-rule="nonzero"/><path fill="#fffefd" d="M 382.855469 282.855469 L 371.429688 282.855469 L 371.429688 294.285156 L 382.855469 294.285156 L 382.855469 282.855469 " fill-opacity="1" fill-rule="nonzero"/><path fill="#fffefd" d="M 360 294.285156 L 360 305.714844 L 371.429688 305.714844 L 371.429688 294.285156 L 360 294.285156 " fill-opacity="1" fill-rule="nonzero"/><path fill="#fffefd" d="M 485.714844 225.714844 C 485.714844 228.289062 485.714844 271.355469 485.714844 294.285156 C 492.828125 294.285156 546.925781 294.285156 554.285156 294.285156 C 554.285156 287.015625 554.285156 278.695312 554.285156 271.429688 L 565.714844 271.429688 L 565.714844 260 C 558.445312 260 550.125 260 542.855469 260 C 542.855469 267.269531 542.855469 275.589844 542.855469 282.855469 C 537.25 282.855469 502.71875 282.855469 497.144531 282.855469 C 497.144531 267.621094 497.144531 252.378906 497.144531 237.144531 C 504.410156 237.144531 512.730469 237.144531 520 237.144531 C 520 229.875 520 221.554688 520 214.285156 L 508.570312 214.285156 L 508.570312 225.714844 C 501.304688 225.714844 492.984375 225.714844 485.714844 225.714844 " fill-opacity="1" fill-rule="nonzero"/><path fill="#fffefd" d="M 474.285156 374.285156 C 474.285156 367.441406 474.285156 312.394531 474.285156 305.714844 C 467.203125 305.714844 412.8125 305.714844 405.714844 305.714844 C 405.714844 312.984375 405.714844 321.304688 405.714844 328.570312 L 394.285156 328.570312 L 394.285156 340 C 401.554688 340 409.875 340 417.144531 340 C 417.144531 332.734375 417.144531 324.410156 417.144531 317.144531 C 422.75 317.144531 457.28125 317.144531 462.855469 317.144531 C 462.855469 322.738281 462.855469 357.261719 462.855469 362.855469 C 455.589844 362.855469 447.269531 362.855469 440 362.855469 C 440 370.125 440 378.445312 440 385.714844 L 451.429688 385.714844 L 451.429688 374.285156 C 458.695312 374.285156 467.015625 374.285156 474.285156 374.285156 " fill-opacity="1" fill-rule="nonzero"/></svg>