<svg xmlns="http://www.w3.org/2000/svg" xmlns:xlink="http://www.w3.org/1999/xlink" zoomAndPan="magnify" preserveAspectRatio="xMidYMid meet" version="1.0" viewBox="382.85 199.18 194.15 240.03"><defs><clipPath id="ed87a94fd8"><path d="M 382.800781 302 L 395 302 L 395 314 L 382.800781 314 Z M 382.800781 302 " clip-rule="nonzero"/></clipPath><clipPath id="ea7ae47e0d"><path d="M 382.800781 313 L 395 313 L 395 325 L 382.800781 325 Z M 382.800781 313 " clip-rule="nonzero"/></clipPath><clipPath id="6fdb57c551"><path d="M 382.800781 324 L 395 324 L 395 337 L 382.800781 337 Z M 382.800781 324 " clip-rule="nonzero"/></clipPath><clipPath id="7b2b3c359c"><path d="M 439 199.1875 L 452 199.1875 L 452 211 L 439 211 Z M 439 199.1875 " clip-rule="nonzero"/></clipPath><clipPath id="e950d0bbe8"><path d="M 451 199.1875 L 463 199.1875 L 463 211 L 451 211 Z M 451 199.1875 " clip-rule="nonzero"/></clipPath><clipPath id="b22e888b7c"><path d="M 439 427 L 452 427 L 452 439.1875 L 439 439.1875 Z M 439 427 " clip-rule="nonzero"/></clipPath><clipPath id="d91e6cdc4c"><path d="M 451 427 L 463 427 L 463 439.1875 L 451 439.1875 Z M 451 427 " clip-rule="nonzero"/></clipPath><clipPath id="230b548dbd"><path d="M 462 427 L 475 427 L 475 439.1875 L 462 439.1875 Z M 462 427 " clip-rule="nonzero"/></clipPath><clipPath id="b772ba30dc"><path d="M 474 427 L 486 427 L 486 439.1875 L 474 439.1875 Z M 474 427 " clip-rule="nonzero"/></clipPath><clipPath id="e1a221f8f9"><path d="M 485 427 L 498 427 L 498 439.1875 L 485 439.1875 Z M 485 427 " clip-rule="nonzero"/></clipPath><clipPath id="acb699160e"><path d="M 497 427 L 509 427 L 509 439.1875 L 497 439.1875 Z M 497 427 " clip-rule="nonzero"/></clipPath><clipPath id="2aba173a81"><path d="M 508 427 L 520 427 L 520 439.1875 L 508 439.1875 Z M 508 427 " clip-rule="nonzero"/></clipPath><clipPath id="66fedb861d"><path d="M 519 427 L 532 427 L 532 439.1875 L 519 439.1875 Z M 519 427 " clip-rule="nonzero"/></clipPath><clipPath id="95e09a37bd"><path d="M 531 427 L 543 427 L 543 439.1875 L 531 439.1875 Z M 531 427 " clip-rule="nonzero"/></clipPath><clipPath id="ffee88e2c4"><path d="M 542 427 L 555 427 L 555 439.1875 L 542 439.1875 Z M 542 427 " clip-rule="nonzero"/></clipPath></defs><g clip-path="url(#ed87a94fd8)"><path fill="#000000" d="M 394.273438 313.472656 L 382.851562 313.472656 L 382.851562 302.046875 L 394.273438 302.046875 L 394.273438 313.472656 " fill-opacity="1" fill-rule="nonzero"/></g><g clip-path="url(#ea7ae47e0d)"><path fill="#000000" d="M 394.273438 324.902344 L 382.851562 324.902344 L 382.851562 313.472656 L 394.273438 313.472656 L 394.273438 324.902344 " fill-opacity="1" fill-rule="nonzero"/></g><g clip-path="url(#6fdb57c551)"><path fill="#000000" d="M 394.273438 336.332031 L 382.851562 336.332031 L 382.851562 324.902344 L 394.273438 324.902344 L 394.273438 336.332031 " fill-opacity="1" fill-rule="nonzero"/></g><path fill="#000000" d="M 405.691406 313.472656 L 394.273438 313.472656 L 394.273438 302.046875 L 405.691406 302.046875 L 405.691406 313.472656 " fill-opacity="1" fill-rule="nonzero"/><path fill="#000000" d="M 417.113281 313.472656 L 405.691406 313.472656 L 405.691406 302.046875 L 417.113281 302.046875 L 417.113281 313.472656 " fill-opacity="1" fill-rule="nonzero"/><path fill="#000000" d="M 428.53125 324.902344 L 417.113281 324.902344 L 417.113281 313.472656 L 428.53125 313.472656 L 428.53125 324.902344 " fill-opacity="1" fill-rule="nonzero"/><path fill="#000000" d="M 439.953125 324.902344 L 428.53125 324.902344 L 428.53125 313.472656 L 439.953125 313.472656 L 439.953125 324.902344 " fill-opacity="1" fill-rule="nonzero"/><path fill="#000000" d="M 439.953125 336.332031 L 428.53125 336.332031 L 428.53125 324.902344 L 439.953125 324.902344 L 439.953125 336.332031 " fill-opacity="1" fill-rule="nonzero"/><path fill="#000000" d="M 439.953125 347.761719 L 428.53125 347.761719 L 428.53125 336.332031 L 439.953125 336.332031 L 439.953125 347.761719 " fill-opacity="1" fill-rule="nonzero"/><path fill="#000000" d="M 439.953125 290.617188 L 428.53125 290.617188 L 428.53125 279.1875 L 439.953125 279.1875 L 439.953125 290.617188 " fill-opacity="1" fill-rule="nonzero"/><path fill="#000000" d="M 439.953125 302.046875 L 428.53125 302.046875 L 428.53125 290.617188 L 439.953125 290.617188 L 439.953125 302.046875 " fill-opacity="1" fill-rule="nonzero"/><path fill="#000000" d="M 439.953125 313.472656 L 428.53125 313.472656 L 428.53125 302.046875 L 439.953125 302.046875 L 439.953125 313.472656 " fill-opacity="1" fill-rule="nonzero"/><path fill="#000000" d="M 439.953125 256.332031 L 428.53125 256.332031 L 428.53125 244.902344 L 439.953125 244.902344 L 439.953125 256.332031 " fill-opacity="1" fill-rule="nonzero"/><path fill="#000000" d="M 439.953125 267.757812 L 428.53125 267.757812 L 428.53125 256.332031 L 439.953125 256.332031 L 439.953125 267.757812 " fill-opacity="1" fill-rule="nonzero"/><path fill="#000000" d="M 439.953125 279.1875 L 428.53125 279.1875 L 428.53125 267.757812 L 439.953125 267.757812 L 439.953125 279.1875 " fill-opacity="1" fill-rule="nonzero"/><path fill="#000000" d="M 439.953125 222.042969 L 428.53125 222.042969 L 428.53125 210.617188 L 439.953125 210.617188 L 439.953125 222.042969 " fill-opacity="1" fill-rule="nonzero"/><path fill="#000000" d="M 439.953125 233.476562 L 428.53125 233.476562 L 428.53125 222.042969 L 439.953125 222.042969 L 439.953125 233.476562 " fill-opacity="1" fill-rule="nonzero"/><path fill="#000000" d="M 439.953125 244.902344 L 428.53125 244.902344 L 428.53125 233.476562 L 439.953125 233.476562 L 439.953125 244.902344 " fill-opacity="1" fill-rule="nonzero"/><path fill="#000000" d="M 474.214844 290.617188 L 462.792969 290.617188 L 462.792969 279.1875 L 474.214844 279.1875 L 474.214844 290.617188 " fill-opacity="1" fill-rule="nonzero"/><path fill="#000000" d="M 474.214844 302.046875 L 462.792969 302.046875 L 462.792969 290.617188 L 474.214844 290.617188 L 474.214844 302.046875 " fill-opacity="1" fill-rule="nonzero"/><path fill="#000000" d="M 474.214844 313.472656 L 462.792969 313.472656 L 462.792969 302.046875 L 474.214844 302.046875 L 474.214844 313.472656 " fill-opacity="1" fill-rule="nonzero"/><path fill="#000000" d="M 474.214844 256.332031 L 462.792969 256.332031 L 462.792969 244.902344 L 474.214844 244.902344 L 474.214844 256.332031 " fill-opacity="1" fill-rule="nonzero"/><path fill="#000000" d="M 474.214844 267.757812 L 462.792969 267.757812 L 462.792969 256.332031 L 474.214844 256.332031 L 474.214844 267.757812 " fill-opacity="1" fill-rule="nonzero"/><path fill="#000000" d="M 474.214844 279.1875 L 462.792969 279.1875 L 462.792969 267.757812 L 474.214844 267.757812 L 474.214844 279.1875 " fill-opacity="1" fill-rule="nonzero"/><path fill="#000000" d="M 474.214844 222.042969 L 462.792969 222.042969 L 462.792969 210.617188 L 474.214844 210.617188 L 474.214844 222.042969 " fill-opacity="1" fill-rule="nonzero"/><path fill="#000000" d="M 474.214844 233.476562 L 462.792969 233.476562 L 462.792969 222.042969 L 474.214844 222.042969 L 474.214844 233.476562 " fill-opacity="1" fill-rule="nonzero"/><path fill="#000000" d="M 474.214844 244.902344 L 462.792969 244.902344 L 462.792969 233.476562 L 474.214844 233.476562 L 474.214844 244.902344 " fill-opacity="1" fill-rule="nonzero"/><g clip-path="url(#7b2b3c359c)"><path fill="#000000" d="M 451.375 210.617188 L 439.953125 210.617188 L 439.953125 199.1875 L 451.375 199.1875 L 451.375 210.617188 " fill-opacity="1" fill-rule="nonzero"/></g><g clip-path="url(#e950d0bbe8)"><path fill="#000000" d="M 462.792969 210.617188 L 451.375 210.617188 L 451.375 199.1875 L 462.792969 199.1875 L 462.792969 210.617188 " fill-opacity="1" fill-rule="nonzero"/></g><path fill="#000000" d="M 405.691406 347.761719 L 394.273438 347.761719 L 394.273438 336.332031 L 405.691406 336.332031 L 405.691406 347.761719 " fill-opacity="1" fill-rule="nonzero"/><path fill="#000000" d="M 417.113281 359.1875 L 405.691406 359.1875 L 405.691406 347.761719 L 417.113281 347.761719 L 417.113281 359.1875 " fill-opacity="1" fill-rule="nonzero"/><path fill="#000000" d="M 417.113281 370.617188 L 405.691406 370.617188 L 405.691406 359.1875 L 417.113281 359.1875 L 417.113281 370.617188 " fill-opacity="1" fill-rule="nonzero"/><path fill="#000000" d="M 428.53125 382.046875 L 417.113281 382.046875 L 417.113281 370.617188 L 428.53125 370.617188 L 428.53125 382.046875 " fill-opacity="1" fill-rule="nonzero"/><path fill="#000000" d="M 428.53125 393.472656 L 417.113281 393.472656 L 417.113281 382.046875 L 428.53125 382.046875 L 428.53125 393.472656 " fill-opacity="1" fill-rule="nonzero"/><path fill="#000000" d="M 439.953125 404.902344 L 428.53125 404.902344 L 428.53125 393.472656 L 439.953125 393.472656 L 439.953125 404.902344 " fill-opacity="1" fill-rule="nonzero"/><path fill="#000000" d="M 439.953125 416.332031 L 428.53125 416.332031 L 428.53125 404.902344 L 439.953125 404.902344 L 439.953125 416.332031 " fill-opacity="1" fill-rule="nonzero"/><path fill="#000000" d="M 451.375 427.761719 L 439.953125 427.761719 L 439.953125 416.332031 L 451.375 416.332031 L 451.375 427.761719 " fill-opacity="1" fill-rule="nonzero"/><g clip-path="url(#b22e888b7c)"><path fill="#000000" d="M 451.375 439.1875 L 439.953125 439.1875 L 439.953125 427.761719 L 451.375 427.761719 L 451.375 439.1875 " fill-opacity="1" fill-rule="nonzero"/></g><g clip-path="url(#d91e6cdc4c)"><path fill="#000000" d="M 462.792969 439.1875 L 451.375 439.1875 L 451.375 427.761719 L 462.792969 427.761719 L 462.792969 439.1875 " fill-opacity="1" fill-rule="nonzero"/></g><g clip-path="url(#230b548dbd)"><path fill="#000000" d="M 474.214844 439.1875 L 462.792969 439.1875 L 462.792969 427.761719 L 474.214844 427.761719 L 474.214844 439.1875 " fill-opacity="1" fill-rule="nonzero"/></g><g clip-path="url(#b772ba30dc)"><path fill="#000000" d="M 485.636719 439.1875 L 474.214844 439.1875 L 474.214844 427.761719 L 485.636719 427.761719 L 485.636719 439.1875 " fill-opacity="1" fill-rule="nonzero"/></g><g clip-path="url(#e1a221f8f9)"><path fill="#000000" d="M 497.054688 439.1875 L 485.636719 439.1875 L 485.636719 427.761719 L 497.054688 427.761719 L 497.054688 439.1875 " fill-opacity="1" fill-rule="nonzero"/></g><g clip-path="url(#acb699160e)"><path fill="#000000" d="M 508.476562 439.1875 L 497.054688 439.1875 L 497.054688 427.761719 L 508.476562 427.761719 L 508.476562 439.1875 " fill-opacity="1" fill-rule="nonzero"/></g><g clip-path="url(#2aba173a81)"><path fill="#000000" d="M 519.894531 439.1875 L 508.476562 439.1875 L 508.476562 427.761719 L 519.894531 427.761719 L 519.894531 439.1875 " fill-opacity="1" fill-rule="nonzero"/></g><g clip-path="url(#66fedb861d)"><path fill="#000000" d="M 531.316406 439.1875 L 519.894531 439.1875 L 519.894531 427.761719 L 531.316406 427.761719 L 531.316406 439.1875 " fill-opacity="1" fill-rule="nonzero"/></g><g clip-path="url(#95e09a37bd)"><path fill="#000000" d="M 542.738281 439.1875 L 531.316406 439.1875 L 531.316406 427.761719 L 542.738281 427.761719 L 542.738281 439.1875 " fill-opacity="1" fill-rule="nonzero"/></g><g clip-path="url(#ffee88e2c4)"><path fill="#000000" d="M 554.15625 439.1875 L 542.738281 439.1875 L 542.738281 427.761719 L 554.15625 427.761719 L 554.15625 439.1875 " fill-opacity="1" fill-rule="nonzero"/></g><path fill="#000000" d="M 554.15625 427.761719 L 542.738281 427.761719 L 542.738281 416.332031 L 554.15625 416.332031 L 554.15625 427.761719 " fill-opacity="1" fill-rule="nonzero"/><path fill="#000000" d="M 565.578125 404.902344 L 554.15625 404.902344 L 554.15625 393.472656 L 565.578125 393.472656 L 565.578125 404.902344 " fill-opacity="1" fill-rule="nonzero"/><path fill="#000000" d="M 565.578125 416.332031 L 554.15625 416.332031 L 554.15625 404.902344 L 565.578125 404.902344 L 565.578125 416.332031 " fill-opacity="1" fill-rule="nonzero"/><path fill="#000000" d="M 577 382.046875 L 565.578125 382.046875 L 565.578125 370.617188 L 577 370.617188 L 577 382.046875 " fill-opacity="1" fill-rule="nonzero"/><path fill="#000000" d="M 577 393.472656 L 565.578125 393.472656 L 565.578125 382.046875 L 577 382.046875 L 577 393.472656 " fill-opacity="1" fill-rule="nonzero"/><path fill="#000000" d="M 577 359.1875 L 565.578125 359.1875 L 565.578125 347.761719 L 577 347.761719 L 577 359.1875 " fill-opacity="1" fill-rule="nonzero"/><path fill="#000000" d="M 577 370.617188 L 565.578125 370.617188 L 565.578125 359.1875 L 577 359.1875 L 577 370.617188 " fill-opacity="1" fill-rule="nonzero"/><path fill="#000000" d="M 577 336.332031 L 565.578125 336.332031 L 565.578125 324.902344 L 577 324.902344 L 577 336.332031 " fill-opacity="1" fill-rule="nonzero"/><path fill="#000000" d="M 577 347.761719 L 565.578125 347.761719 L 565.578125 336.332031 L 577 336.332031 L 577 347.761719 " fill-opacity="1" fill-rule="nonzero"/><path fill="#000000" d="M 577 313.472656 L 565.578125 313.472656 L 565.578125 302.046875 L 577 302.046875 L 577 313.472656 " fill-opacity="1" fill-rule="nonzero"/><path fill="#000000" d="M 577 324.902344 L 565.578125 324.902344 L 565.578125 313.472656 L 577 313.472656 L 577 324.902344 " fill-opacity="1" fill-rule="nonzero"/><path fill="#000000" d="M 565.578125 302.046875 L 554.15625 302.046875 L 554.15625 290.617188 L 565.578125 290.617188 L 565.578125 302.046875 " fill-opacity="1" fill-rule="nonzero"/><path fill="#000000" d="M 554.15625 290.617188 L 542.738281 290.617188 L 542.738281 279.1875 L 554.15625 279.1875 L 554.15625 290.617188 " fill-opacity="1" fill-rule="nonzero"/><path fill="#000000" d="M 542.738281 290.617188 L 531.316406 290.617188 L 531.316406 279.1875 L 542.738281 279.1875 L 542.738281 290.617188 " fill-opacity="1" fill-rule="nonzero"/><path fill="#000000" d="M 542.738281 302.046875 L 531.316406 302.046875 L 531.316406 290.617188 L 542.738281 290.617188 L 542.738281 302.046875 " fill-opacity="1" fill-rule="nonzero"/><path fill="#000000" d="M 542.738281 313.472656 L 531.316406 313.472656 L 531.316406 302.046875 L 542.738281 302.046875 L 542.738281 313.472656 " fill-opacity="1" fill-rule="nonzero"/><path fill="#000000" d="M 542.738281 324.902344 L 531.316406 324.902344 L 531.316406 313.472656 L 542.738281 313.472656 L 542.738281 324.902344 " fill-opacity="1" fill-rule="nonzero"/><path fill="#000000" d="M 531.316406 279.1875 L 519.894531 279.1875 L 519.894531 267.757812 L 531.316406 267.757812 L 531.316406 279.1875 " fill-opacity="1" fill-rule="nonzero"/><path fill="#000000" d="M 519.894531 279.1875 L 508.476562 279.1875 L 508.476562 267.757812 L 519.894531 267.757812 L 519.894531 279.1875 " fill-opacity="1" fill-rule="nonzero"/><path fill="#000000" d="M 508.476562 279.1875 L 497.054688 279.1875 L 497.054688 267.757812 L 508.476562 267.757812 L 508.476562 279.1875 " fill-opacity="1" fill-rule="nonzero"/><path fill="#000000" d="M 508.476562 290.617188 L 497.054688 290.617188 L 497.054688 279.1875 L 508.476562 279.1875 L 508.476562 290.617188 " fill-opacity="1" fill-rule="nonzero"/><path fill="#000000" d="M 508.476562 302.046875 L 497.054688 302.046875 L 497.054688 290.617188 L 508.476562 290.617188 L 508.476562 302.046875 " fill-opacity="1" fill-rule="nonzero"/><path fill="#000000" d="M 508.476562 313.472656 L 497.054688 313.472656 L 497.054688 302.046875 L 508.476562 302.046875 L 508.476562 313.472656 " fill-opacity="1" fill-rule="nonzero"/><path fill="#000000" d="M 485.574219 267.757812 L 474.15625 267.757812 L 474.15625 256.332031 L 485.574219 256.332031 L 485.574219 267.757812 " fill-opacity="1" fill-rule="nonzero"/><path fill="#000000" d="M 496.941406 267.757812 L 485.519531 267.757812 L 485.519531 256.332031 L 496.941406 256.332031 L 496.941406 267.757812 " fill-opacity="1" fill-rule="nonzero"/><path fill="#ffffff" d="M 405.691406 324.902344 L 394.273438 324.902344 L 394.273438 313.472656 L 405.691406 313.472656 L 405.691406 324.902344 " fill-opacity="1" fill-rule="nonzero"/><path fill="#ffffff" d="M 405.691406 336.332031 L 394.273438 336.332031 L 394.273438 324.902344 L 405.691406 324.902344 L 405.691406 336.332031 " fill-opacity="1" fill-rule="nonzero"/><path fill="#ffffff" d="M 417.113281 347.761719 L 405.691406 347.761719 L 405.691406 336.332031 L 417.113281 336.332031 L 417.113281 347.761719 " fill-opacity="1" fill-rule="nonzero"/><path fill="#ffffff" d="M 428.53125 359.1875 L 417.113281 359.1875 L 417.113281 347.761719 L 428.53125 347.761719 L 428.53125 359.1875 " fill-opacity="1" fill-rule="nonzero"/><path fill="#ffffff" d="M 428.53125 370.617188 L 417.113281 370.617188 L 417.113281 359.1875 L 428.53125 359.1875 L 428.53125 370.617188 " fill-opacity="1" fill-rule="nonzero"/><path fill="#ffffff" d="M 439.953125 382.046875 L 428.53125 382.046875 L 428.53125 370.617188 L 439.953125 370.617188 L 439.953125 382.046875 " fill-opacity="1" fill-rule="nonzero"/><path fill="#ffffff" d="M 439.953125 393.472656 L 428.53125 393.472656 L 428.53125 382.046875 L 439.953125 382.046875 L 439.953125 393.472656 " fill-opacity="1" fill-rule="nonzero"/><path fill="#ffffff" d="M 451.375 404.902344 L 439.953125 404.902344 L 439.953125 393.472656 L 451.375 393.472656 L 451.375 404.902344 " fill-opacity="1" fill-rule="nonzero"/><path fill="#ffffff" d="M 451.375 416.332031 L 439.953125 416.332031 L 439.953125 404.902344 L 451.375 404.902344 L 451.375 416.332031 " fill-opacity="1" fill-rule="nonzero"/><path fill="#ffffff" d="M 462.792969 427.761719 L 451.375 427.761719 L 451.375 416.332031 L 462.792969 416.332031 L 462.792969 427.761719 " fill-opacity="1" fill-rule="nonzero"/><path fill="#ffffff" d="M 417.113281 324.902344 L 405.691406 324.902344 L 405.691406 313.472656 L 417.113281 313.472656 L 417.113281 324.902344 " fill-opacity="1" fill-rule="nonzero"/><path fill="#ffffff" d="M 417.113281 336.332031 L 405.691406 336.332031 L 405.691406 324.902344 L 417.113281 324.902344 L 417.113281 336.332031 " fill-opacity="1" fill-rule="nonzero"/><path fill="#ffffff" d="M 428.53125 347.761719 L 417.113281 347.761719 L 417.113281 336.332031 L 428.53125 336.332031 L 428.53125 347.761719 " fill-opacity="1" fill-rule="nonzero"/><path fill="#ffffff" d="M 439.953125 359.1875 L 428.53125 359.1875 L 428.53125 347.761719 L 439.953125 347.761719 L 439.953125 359.1875 " fill-opacity="1" fill-rule="nonzero"/><path fill="#ffffff" d="M 439.953125 370.617188 L 428.53125 370.617188 L 428.53125 359.1875 L 439.953125 359.1875 L 439.953125 370.617188 " fill-opacity="1" fill-rule="nonzero"/><path fill="#ffffff" d="M 451.375 382.046875 L 439.953125 382.046875 L 439.953125 370.617188 L 451.375 370.617188 L 451.375 382.046875 " fill-opacity="1" fill-rule="nonzero"/><path fill="#ffffff" d="M 451.375 393.472656 L 439.953125 393.472656 L 439.953125 382.046875 L 451.375 382.046875 L 451.375 393.472656 " fill-opacity="1" fill-rule="nonzero"/><path fill="#ffffff" d="M 462.792969 404.902344 L 451.375 404.902344 L 451.375 393.472656 L 462.792969 393.472656 L 462.792969 404.902344 " fill-opacity="1" fill-rule="nonzero"/><path fill="#ffffff" d="M 462.792969 416.332031 L 451.375 416.332031 L 451.375 404.902344 L 462.792969 404.902344 L 462.792969 416.332031 " fill-opacity="1" fill-rule="nonzero"/><path fill="#ffffff" d="M 474.214844 427.761719 L 462.792969 427.761719 L 462.792969 416.332031 L 474.214844 416.332031 L 474.214844 427.761719 " fill-opacity="1" fill-rule="nonzero"/><path fill="#ffffff" d="M 428.53125 336.332031 L 417.113281 336.332031 L 417.113281 324.902344 L 428.53125 324.902344 L 428.53125 336.332031 " fill-opacity="1" fill-rule="nonzero"/><path fill="#ffffff" d="M 485.636719 427.761719 L 474.214844 427.761719 L 474.214844 416.332031 L 485.636719 416.332031 L 485.636719 427.761719 " fill-opacity="1" fill-rule="nonzero"/><path fill="#ffffff" d="M 485.636719 404.902344 L 474.214844 404.902344 L 474.214844 393.472656 L 485.636719 393.472656 L 485.636719 404.902344 " fill-opacity="1" fill-rule="nonzero"/><path fill="#ffffff" d="M 485.636719 416.332031 L 474.214844 416.332031 L 474.214844 404.902344 L 485.636719 404.902344 L 485.636719 416.332031 " fill-opacity="1" fill-rule="nonzero"/><path fill="#ffffff" d="M 485.636719 382.046875 L 474.214844 382.046875 L 474.214844 370.617188 L 485.636719 370.617188 L 485.636719 382.046875 " fill-opacity="1" fill-rule="nonzero"/><path fill="#ffffff" d="M 485.636719 393.472656 L 474.214844 393.472656 L 474.214844 382.046875 L 485.636719 382.046875 L 485.636719 393.472656 " fill-opacity="1" fill-rule="nonzero"/><path fill="#ffffff" d="M 474.214844 416.332031 L 462.792969 416.332031 L 462.792969 404.902344 L 474.214844 404.902344 L 474.214844 416.332031 " fill-opacity="1" fill-rule="nonzero"/><path fill="#ffffff" d="M 474.214844 393.472656 L 462.792969 393.472656 L 462.792969 382.046875 L 474.214844 382.046875 L 474.214844 393.472656 " fill-opacity="1" fill-rule="nonzero"/><path fill="#ffffff" d="M 474.214844 404.902344 L 462.792969 404.902344 L 462.792969 393.472656 L 474.214844 393.472656 L 474.214844 404.902344 " fill-opacity="1" fill-rule="nonzero"/><path fill="#ffffff" d="M 474.214844 370.617188 L 462.792969 370.617188 L 462.792969 359.1875 L 474.214844 359.1875 L 474.214844 370.617188 " fill-opacity="1" fill-rule="nonzero"/><path fill="#ffffff" d="M 474.214844 382.046875 L 462.792969 382.046875 L 462.792969 370.617188 L 474.214844 370.617188 L 474.214844 382.046875 " fill-opacity="1" fill-rule="nonzero"/><path fill="#ffffff" d="M 462.792969 393.472656 L 451.375 393.472656 L 451.375 382.046875 L 462.792969 382.046875 L 462.792969 393.472656 " fill-opacity="1" fill-rule="nonzero"/><path fill="#ffffff" d="M 462.792969 370.617188 L 451.375 370.617188 L 451.375 359.1875 L 462.792969 359.1875 L 462.792969 370.617188 " fill-opacity="1" fill-rule="nonzero"/><path fill="#ffffff" d="M 462.792969 382.046875 L 451.375 382.046875 L 451.375 370.617188 L 462.792969 370.617188 L 462.792969 382.046875 " fill-opacity="1" fill-rule="nonzero"/><path fill="#ffffff" d="M 462.792969 347.761719 L 451.375 347.761719 L 451.375 336.332031 L 462.792969 336.332031 L 462.792969 347.761719 " fill-opacity="1" fill-rule="nonzero"/><path fill="#ffffff" d="M 462.792969 359.1875 L 451.375 359.1875 L 451.375 347.761719 L 462.792969 347.761719 L 462.792969 359.1875 " fill-opacity="1" fill-rule="nonzero"/><path fill="#ffffff" d="M 451.375 370.617188 L 439.953125 370.617188 L 439.953125 359.1875 L 451.375 359.1875 L 451.375 370.617188 " fill-opacity="1" fill-rule="nonzero"/><path fill="#ffffff" d="M 451.375 347.761719 L 439.953125 347.761719 L 439.953125 336.332031 L 451.375 336.332031 L 451.375 347.761719 " fill-opacity="1" fill-rule="nonzero"/><path fill="#ffffff" d="M 451.375 359.1875 L 439.953125 359.1875 L 439.953125 347.761719 L 451.375 347.761719 L 451.375 359.1875 " fill-opacity="1" fill-rule="nonzero"/><path fill="#ffffff" d="M 451.375 324.902344 L 439.953125 324.902344 L 439.953125 313.472656 L 451.375 313.472656 L 451.375 324.902344 " fill-opacity="1" fill-rule="nonzero"/><path fill="#ffffff" d="M 451.375 336.332031 L 439.953125 336.332031 L 439.953125 324.902344 L 451.375 324.902344 L 451.375 336.332031 " fill-opacity="1" fill-rule="nonzero"/><path fill="#ffffff" d="M 451.375 313.472656 L 439.953125 313.472656 L 439.953125 302.046875 L 451.375 302.046875 L 451.375 313.472656 " fill-opacity="1" fill-rule="nonzero"/><path fill="#ffffff" d="M 451.375 290.617188 L 439.953125 290.617188 L 439.953125 279.1875 L 451.375 279.1875 L 451.375 290.617188 " fill-opacity="1" fill-rule="nonzero"/><path fill="#ffffff" d="M 451.375 302.046875 L 439.953125 302.046875 L 439.953125 290.617188 L 451.375 290.617188 L 451.375 302.046875 " fill-opacity="1" fill-rule="nonzero"/><path fill="#ffffff" d="M 451.375 267.757812 L 439.953125 267.757812 L 439.953125 256.332031 L 451.375 256.332031 L 451.375 267.757812 " fill-opacity="1" fill-rule="nonzero"/><path fill="#ffffff" d="M 451.375 279.1875 L 439.953125 279.1875 L 439.953125 267.757812 L 451.375 267.757812 L 451.375 279.1875 " fill-opacity="1" fill-rule="nonzero"/><path fill="#ffffff" d="M 451.375 244.902344 L 439.953125 244.902344 L 439.953125 233.476562 L 451.375 233.476562 L 451.375 244.902344 " fill-opacity="1" fill-rule="nonzero"/><path fill="#ffffff" d="M 451.375 256.332031 L 439.953125 256.332031 L 439.953125 244.902344 L 451.375 244.902344 L 451.375 256.332031 " fill-opacity="1" fill-rule="nonzero"/><path fill="#ffffff" d="M 451.375 222.042969 L 439.953125 222.042969 L 439.953125 210.617188 L 451.375 210.617188 L 451.375 222.042969 " fill-opacity="1" fill-rule="nonzero"/><path fill="#ffffff" d="M 451.375 233.476562 L 439.953125 233.476562 L 439.953125 222.042969 L 451.375 222.042969 L 451.375 233.476562 " fill-opacity="1" fill-rule="nonzero"/><path fill="#ffffff" d="M 462.765625 324.902344 L 451.34375 324.902344 L 451.34375 313.472656 L 462.765625 313.472656 L 462.765625 324.902344 " fill-opacity="1" fill-rule="nonzero"/><path fill="#ffffff" d="M 462.765625 336.332031 L 451.34375 336.332031 L 451.34375 324.902344 L 462.765625 324.902344 L 462.765625 336.332031 " fill-opacity="1" fill-rule="nonzero"/><path fill="#ffffff" d="M 462.765625 313.472656 L 451.34375 313.472656 L 451.34375 302.046875 L 462.765625 302.046875 L 462.765625 313.472656 " fill-opacity="1" fill-rule="nonzero"/><path fill="#ffffff" d="M 462.765625 290.617188 L 451.34375 290.617188 L 451.34375 279.1875 L 462.765625 279.1875 L 462.765625 290.617188 " fill-opacity="1" fill-rule="nonzero"/><path fill="#ffffff" d="M 462.765625 302.046875 L 451.34375 302.046875 L 451.34375 290.617188 L 462.765625 290.617188 L 462.765625 302.046875 " fill-opacity="1" fill-rule="nonzero"/><path fill="#ffffff" d="M 462.765625 267.757812 L 451.34375 267.757812 L 451.34375 256.332031 L 462.765625 256.332031 L 462.765625 267.757812 " fill-opacity="1" fill-rule="nonzero"/><path fill="#ffffff" d="M 462.765625 279.1875 L 451.34375 279.1875 L 451.34375 267.757812 L 462.765625 267.757812 L 462.765625 279.1875 " fill-opacity="1" fill-rule="nonzero"/><path fill="#ffffff" d="M 462.765625 244.902344 L 451.34375 244.902344 L 451.34375 233.476562 L 462.765625 233.476562 L 462.765625 244.902344 " fill-opacity="1" fill-rule="nonzero"/><path fill="#ffffff" d="M 462.765625 256.332031 L 451.34375 256.332031 L 451.34375 244.902344 L 462.765625 244.902344 L 462.765625 256.332031 " fill-opacity="1" fill-rule="nonzero"/><path fill="#ffffff" d="M 462.765625 222.042969 L 451.34375 222.042969 L 451.34375 210.617188 L 462.765625 210.617188 L 462.765625 222.042969 " fill-opacity="1" fill-rule="nonzero"/><path fill="#ffffff" d="M 462.765625 233.476562 L 451.34375 233.476562 L 451.34375 222.042969 L 462.765625 222.042969 L 462.765625 233.476562 " fill-opacity="1" fill-rule="nonzero"/><path fill="#ffffff" d="M 474.230469 347.761719 L 462.808594 347.761719 L 462.808594 336.332031 L 474.230469 336.332031 L 474.230469 347.761719 " fill-opacity="1" fill-rule="nonzero"/><path fill="#ffffff" d="M 474.230469 359.1875 L 462.808594 359.1875 L 462.808594 347.761719 L 474.230469 347.761719 L 474.230469 359.1875 " fill-opacity="1" fill-rule="nonzero"/><path fill="#ffffff" d="M 474.199219 324.902344 L 462.777344 324.902344 L 462.777344 313.472656 L 474.199219 313.472656 L 474.199219 324.902344 " fill-opacity="1" fill-rule="nonzero"/><path fill="#ffffff" d="M 474.199219 336.332031 L 462.777344 336.332031 L 462.777344 324.902344 L 474.199219 324.902344 L 474.199219 336.332031 " fill-opacity="1" fill-rule="nonzero"/><path fill="#ffffff" d="M 485.636719 370.617188 L 474.214844 370.617188 L 474.214844 359.1875 L 485.636719 359.1875 L 485.636719 370.617188 " fill-opacity="1" fill-rule="nonzero"/><path fill="#ffffff" d="M 485.648438 347.761719 L 474.230469 347.761719 L 474.230469 336.332031 L 485.648438 336.332031 L 485.648438 347.761719 " fill-opacity="1" fill-rule="nonzero"/><path fill="#ffffff" d="M 485.648438 359.1875 L 474.230469 359.1875 L 474.230469 347.761719 L 485.648438 347.761719 L 485.648438 359.1875 " fill-opacity="1" fill-rule="nonzero"/><path fill="#ffffff" d="M 485.621094 324.902344 L 474.199219 324.902344 L 474.199219 313.472656 L 485.621094 313.472656 L 485.621094 324.902344 " fill-opacity="1" fill-rule="nonzero"/><path fill="#ffffff" d="M 485.621094 336.332031 L 474.199219 336.332031 L 474.199219 324.902344 L 485.621094 324.902344 L 485.621094 336.332031 " fill-opacity="1" fill-rule="nonzero"/><path fill="#ffffff" d="M 485.648438 302.046875 L 474.230469 302.046875 L 474.230469 290.617188 L 485.648438 290.617188 L 485.648438 302.046875 " fill-opacity="1" fill-rule="nonzero"/><path fill="#ffffff" d="M 485.621094 279.1875 L 474.199219 279.1875 L 474.199219 267.757812 L 485.621094 267.757812 L 485.621094 279.1875 " fill-opacity="1" fill-rule="nonzero"/><path fill="#ffffff" d="M 485.621094 290.617188 L 474.199219 290.617188 L 474.199219 279.1875 L 485.621094 279.1875 L 485.621094 290.617188 " fill-opacity="1" fill-rule="nonzero"/><path fill="#ffffff" d="M 497.070312 302.046875 L 485.648438 302.046875 L 485.648438 290.617188 L 497.070312 290.617188 L 497.070312 302.046875 " fill-opacity="1" fill-rule="nonzero"/><path fill="#ffffff" d="M 497.039062 279.1875 L 485.621094 279.1875 L 485.621094 267.757812 L 497.039062 267.757812 L 497.039062 279.1875 " fill-opacity="1" fill-rule="nonzero"/><path fill="#ffffff" d="M 497.039062 290.617188 L 485.621094 290.617188 L 485.621094 279.1875 L 497.039062 279.1875 L 497.039062 290.617188 " fill-opacity="1" fill-rule="nonzero"/><path fill="#ffffff" d="M 485.648438 313.472656 L 474.230469 313.472656 L 474.230469 302.046875 L 485.648438 302.046875 L 485.648438 313.472656 " fill-opacity="1" fill-rule="nonzero"/><path fill="#ffffff" d="M 497.070312 313.472656 L 485.648438 313.472656 L 485.648438 302.046875 L 497.070312 302.046875 L 497.070312 313.472656 " fill-opacity="1" fill-rule="nonzero"/><path fill="#ffffff" d="M 497.070312 427.761719 L 485.648438 427.761719 L 485.648438 416.332031 L 497.070312 416.332031 L 497.070312 427.761719 " fill-opacity="1" fill-rule="nonzero"/><path fill="#ffffff" d="M 497.070312 404.902344 L 485.648438 404.902344 L 485.648438 393.472656 L 497.070312 393.472656 L 497.070312 404.902344 " fill-opacity="1" fill-rule="nonzero"/><path fill="#ffffff" d="M 497.070312 416.332031 L 485.648438 416.332031 L 485.648438 404.902344 L 497.070312 404.902344 L 497.070312 416.332031 " fill-opacity="1" fill-rule="nonzero"/><path fill="#ffffff" d="M 508.492188 427.761719 L 497.070312 427.761719 L 497.070312 416.332031 L 508.492188 416.332031 L 508.492188 427.761719 " fill-opacity="1" fill-rule="nonzero"/><path fill="#ffffff" d="M 497.070312 382.046875 L 485.648438 382.046875 L 485.648438 370.617188 L 497.070312 370.617188 L 497.070312 382.046875 " fill-opacity="1" fill-rule="nonzero"/><path fill="#ffffff" d="M 497.070312 393.472656 L 485.648438 393.472656 L 485.648438 382.046875 L 497.070312 382.046875 L 497.070312 393.472656 " fill-opacity="1" fill-rule="nonzero"/><path fill="#ffffff" d="M 508.492188 404.902344 L 497.070312 404.902344 L 497.070312 393.472656 L 508.492188 393.472656 L 508.492188 404.902344 " fill-opacity="1" fill-rule="nonzero"/><path fill="#ffffff" d="M 508.492188 416.332031 L 497.070312 416.332031 L 497.070312 404.902344 L 508.492188 404.902344 L 508.492188 416.332031 " fill-opacity="1" fill-rule="nonzero"/><path fill="#ffffff" d="M 519.910156 427.761719 L 508.492188 427.761719 L 508.492188 416.332031 L 519.910156 416.332031 L 519.910156 427.761719 " fill-opacity="1" fill-rule="nonzero"/><path fill="#ffffff" d="M 531.332031 427.761719 L 519.910156 427.761719 L 519.910156 416.332031 L 531.332031 416.332031 L 531.332031 427.761719 " fill-opacity="1" fill-rule="nonzero"/><path fill="#ffffff" d="M 531.332031 404.902344 L 519.910156 404.902344 L 519.910156 393.472656 L 531.332031 393.472656 L 531.332031 404.902344 " fill-opacity="1" fill-rule="nonzero"/><path fill="#ffffff" d="M 531.332031 416.332031 L 519.910156 416.332031 L 519.910156 404.902344 L 531.332031 404.902344 L 531.332031 416.332031 " fill-opacity="1" fill-rule="nonzero"/><path fill="#ffffff" d="M 531.332031 382.046875 L 519.910156 382.046875 L 519.910156 370.617188 L 531.332031 370.617188 L 531.332031 382.046875 " fill-opacity="1" fill-rule="nonzero"/><path fill="#ffffff" d="M 531.332031 393.472656 L 519.910156 393.472656 L 519.910156 382.046875 L 531.332031 382.046875 L 531.332031 393.472656 " fill-opacity="1" fill-rule="nonzero"/><path fill="#ffffff" d="M 519.910156 416.332031 L 508.492188 416.332031 L 508.492188 404.902344 L 519.910156 404.902344 L 519.910156 416.332031 " fill-opacity="1" fill-rule="nonzero"/><path fill="#ffffff" d="M 519.910156 393.472656 L 508.492188 393.472656 L 508.492188 382.046875 L 519.910156 382.046875 L 519.910156 393.472656 " fill-opacity="1" fill-rule="nonzero"/><path fill="#ffffff" d="M 519.910156 404.902344 L 508.492188 404.902344 L 508.492188 393.472656 L 519.910156 393.472656 L 519.910156 404.902344 " fill-opacity="1" fill-rule="nonzero"/><path fill="#ffffff" d="M 519.910156 370.617188 L 508.492188 370.617188 L 508.492188 359.1875 L 519.910156 359.1875 L 519.910156 370.617188 " fill-opacity="1" fill-rule="nonzero"/><path fill="#ffffff" d="M 519.910156 382.046875 L 508.492188 382.046875 L 508.492188 370.617188 L 519.910156 370.617188 L 519.910156 382.046875 " fill-opacity="1" fill-rule="nonzero"/><path fill="#ffffff" d="M 508.492188 393.472656 L 497.070312 393.472656 L 497.070312 382.046875 L 508.492188 382.046875 L 508.492188 393.472656 " fill-opacity="1" fill-rule="nonzero"/><path fill="#ffffff" d="M 508.492188 370.617188 L 497.070312 370.617188 L 497.070312 359.1875 L 508.492188 359.1875 L 508.492188 370.617188 " fill-opacity="1" fill-rule="nonzero"/><path fill="#ffffff" d="M 508.492188 382.046875 L 497.070312 382.046875 L 497.070312 370.617188 L 508.492188 370.617188 L 508.492188 382.046875 " fill-opacity="1" fill-rule="nonzero"/><path fill="#ffffff" d="M 508.492188 347.761719 L 497.070312 347.761719 L 497.070312 336.332031 L 508.492188 336.332031 L 508.492188 347.761719 " fill-opacity="1" fill-rule="nonzero"/><path fill="#ffffff" d="M 508.492188 359.1875 L 497.070312 359.1875 L 497.070312 347.761719 L 508.492188 347.761719 L 508.492188 359.1875 " fill-opacity="1" fill-rule="nonzero"/><path fill="#ffffff" d="M 497.070312 370.617188 L 485.648438 370.617188 L 485.648438 359.1875 L 497.070312 359.1875 L 497.070312 370.617188 " fill-opacity="1" fill-rule="nonzero"/><path fill="#ffffff" d="M 497.070312 347.761719 L 485.648438 347.761719 L 485.648438 336.332031 L 497.070312 336.332031 L 497.070312 347.761719 " fill-opacity="1" fill-rule="nonzero"/><path fill="#ffffff" d="M 497.070312 359.1875 L 485.648438 359.1875 L 485.648438 347.761719 L 497.070312 347.761719 L 497.070312 359.1875 " fill-opacity="1" fill-rule="nonzero"/><path fill="#ffffff" d="M 497.070312 324.902344 L 485.648438 324.902344 L 485.648438 313.472656 L 497.070312 313.472656 L 497.070312 324.902344 " fill-opacity="1" fill-rule="nonzero"/><path fill="#ffffff" d="M 497.070312 336.332031 L 485.648438 336.332031 L 485.648438 324.902344 L 497.070312 324.902344 L 497.070312 336.332031 " fill-opacity="1" fill-rule="nonzero"/><path fill="#ffffff" d="M 508.460938 324.902344 L 497.039062 324.902344 L 497.039062 313.472656 L 508.460938 313.472656 L 508.460938 324.902344 " fill-opacity="1" fill-rule="nonzero"/><path fill="#ffffff" d="M 508.460938 336.332031 L 497.039062 336.332031 L 497.039062 324.902344 L 508.460938 324.902344 L 508.460938 336.332031 " fill-opacity="1" fill-rule="nonzero"/><path fill="#ffffff" d="M 519.925781 347.761719 L 508.503906 347.761719 L 508.503906 336.332031 L 519.925781 336.332031 L 519.925781 347.761719 " fill-opacity="1" fill-rule="nonzero"/><path fill="#ffffff" d="M 519.925781 359.1875 L 508.503906 359.1875 L 508.503906 347.761719 L 519.925781 347.761719 L 519.925781 359.1875 " fill-opacity="1" fill-rule="nonzero"/><path fill="#ffffff" d="M 519.894531 324.902344 L 508.476562 324.902344 L 508.476562 313.472656 L 519.894531 313.472656 L 519.894531 324.902344 " fill-opacity="1" fill-rule="nonzero"/><path fill="#ffffff" d="M 519.894531 336.332031 L 508.476562 336.332031 L 508.476562 324.902344 L 519.894531 324.902344 L 519.894531 336.332031 " fill-opacity="1" fill-rule="nonzero"/><path fill="#ffffff" d="M 531.332031 370.617188 L 519.910156 370.617188 L 519.910156 359.1875 L 531.332031 359.1875 L 531.332031 370.617188 " fill-opacity="1" fill-rule="nonzero"/><path fill="#ffffff" d="M 531.34375 347.761719 L 519.925781 347.761719 L 519.925781 336.332031 L 531.34375 336.332031 L 531.34375 347.761719 " fill-opacity="1" fill-rule="nonzero"/><path fill="#ffffff" d="M 531.34375 359.1875 L 519.925781 359.1875 L 519.925781 347.761719 L 531.34375 347.761719 L 531.34375 359.1875 " fill-opacity="1" fill-rule="nonzero"/><path fill="#ffffff" d="M 531.316406 324.902344 L 519.894531 324.902344 L 519.894531 313.472656 L 531.316406 313.472656 L 531.316406 324.902344 " fill-opacity="1" fill-rule="nonzero"/><path fill="#ffffff" d="M 531.316406 336.332031 L 519.894531 336.332031 L 519.894531 324.902344 L 531.316406 324.902344 L 531.316406 336.332031 " fill-opacity="1" fill-rule="nonzero"/><path fill="#ffffff" d="M 519.925781 313.472656 L 508.503906 313.472656 L 508.503906 302.046875 L 519.925781 302.046875 L 519.925781 313.472656 " fill-opacity="1" fill-rule="nonzero"/><path fill="#ffffff" d="M 519.894531 290.617188 L 508.476562 290.617188 L 508.476562 279.1875 L 519.894531 279.1875 L 519.894531 290.617188 " fill-opacity="1" fill-rule="nonzero"/><path fill="#ffffff" d="M 519.894531 302.046875 L 508.476562 302.046875 L 508.476562 290.617188 L 519.894531 290.617188 L 519.894531 302.046875 " fill-opacity="1" fill-rule="nonzero"/><path fill="#ffffff" d="M 531.34375 313.472656 L 519.925781 313.472656 L 519.925781 302.046875 L 531.34375 302.046875 L 531.34375 313.472656 " fill-opacity="1" fill-rule="nonzero"/><path fill="#ffffff" d="M 531.316406 290.617188 L 519.894531 290.617188 L 519.894531 279.1875 L 531.316406 279.1875 L 531.316406 290.617188 " fill-opacity="1" fill-rule="nonzero"/><path fill="#ffffff" d="M 531.316406 302.046875 L 519.894531 302.046875 L 519.894531 290.617188 L 531.316406 290.617188 L 531.316406 302.046875 " fill-opacity="1" fill-rule="nonzero"/><path fill="#ffffff" d="M 542.753906 427.761719 L 531.332031 427.761719 L 531.332031 416.332031 L 542.753906 416.332031 L 542.753906 427.761719 " fill-opacity="1" fill-rule="nonzero"/><path fill="#ffffff" d="M 542.753906 404.902344 L 531.332031 404.902344 L 531.332031 393.472656 L 542.753906 393.472656 L 542.753906 404.902344 " fill-opacity="1" fill-rule="nonzero"/><path fill="#ffffff" d="M 542.753906 416.332031 L 531.332031 416.332031 L 531.332031 404.902344 L 542.753906 404.902344 L 542.753906 416.332031 " fill-opacity="1" fill-rule="nonzero"/><path fill="#ffffff" d="M 542.753906 382.046875 L 531.332031 382.046875 L 531.332031 370.617188 L 542.753906 370.617188 L 542.753906 382.046875 " fill-opacity="1" fill-rule="nonzero"/><path fill="#ffffff" d="M 542.753906 393.472656 L 531.332031 393.472656 L 531.332031 382.046875 L 542.753906 382.046875 L 542.753906 393.472656 " fill-opacity="1" fill-rule="nonzero"/><path fill="#ffffff" d="M 542.753906 370.617188 L 531.332031 370.617188 L 531.332031 359.1875 L 542.753906 359.1875 L 542.753906 370.617188 " fill-opacity="1" fill-rule="nonzero"/><path fill="#ffffff" d="M 542.765625 347.761719 L 531.34375 347.761719 L 531.34375 336.332031 L 542.765625 336.332031 L 542.765625 347.761719 " fill-opacity="1" fill-rule="nonzero"/><path fill="#ffffff" d="M 542.765625 359.1875 L 531.34375 359.1875 L 531.34375 347.761719 L 542.765625 347.761719 L 542.765625 359.1875 " fill-opacity="1" fill-rule="nonzero"/><path fill="#ffffff" d="M 542.738281 336.332031 L 531.316406 336.332031 L 531.316406 324.902344 L 542.738281 324.902344 L 542.738281 336.332031 " fill-opacity="1" fill-rule="nonzero"/><path fill="#ffffff" d="M 554.15625 404.902344 L 542.738281 404.902344 L 542.738281 393.472656 L 554.15625 393.472656 L 554.15625 404.902344 " fill-opacity="1" fill-rule="nonzero"/><path fill="#ffffff" d="M 554.15625 416.332031 L 542.738281 416.332031 L 542.738281 404.902344 L 554.15625 404.902344 L 554.15625 416.332031 " fill-opacity="1" fill-rule="nonzero"/><path fill="#ffffff" d="M 554.15625 382.046875 L 542.738281 382.046875 L 542.738281 370.617188 L 554.15625 370.617188 L 554.15625 382.046875 " fill-opacity="1" fill-rule="nonzero"/><path fill="#ffffff" d="M 554.15625 393.472656 L 542.738281 393.472656 L 542.738281 382.046875 L 554.15625 382.046875 L 554.15625 393.472656 " fill-opacity="1" fill-rule="nonzero"/><path fill="#ffffff" d="M 554.15625 370.617188 L 542.738281 370.617188 L 542.738281 359.1875 L 554.15625 359.1875 L 554.15625 370.617188 " fill-opacity="1" fill-rule="nonzero"/><path fill="#ffffff" d="M 554.171875 347.761719 L 542.753906 347.761719 L 542.753906 336.332031 L 554.171875 336.332031 L 554.171875 347.761719 " fill-opacity="1" fill-rule="nonzero"/><path fill="#ffffff" d="M 554.171875 359.1875 L 542.753906 359.1875 L 542.753906 347.761719 L 554.171875 347.761719 L 554.171875 359.1875 " fill-opacity="1" fill-rule="nonzero"/><path fill="#ffffff" d="M 554.140625 336.332031 L 542.722656 336.332031 L 542.722656 324.902344 L 554.140625 324.902344 L 554.140625 336.332031 " fill-opacity="1" fill-rule="nonzero"/><path fill="#ffffff" d="M 565.589844 382.046875 L 554.171875 382.046875 L 554.171875 370.617188 L 565.589844 370.617188 L 565.589844 382.046875 " fill-opacity="1" fill-rule="nonzero"/><path fill="#ffffff" d="M 565.589844 393.472656 L 554.171875 393.472656 L 554.171875 382.046875 L 565.589844 382.046875 L 565.589844 393.472656 " fill-opacity="1" fill-rule="nonzero"/><path fill="#ffffff" d="M 565.589844 359.1875 L 554.171875 359.1875 L 554.171875 347.761719 L 565.589844 347.761719 L 565.589844 359.1875 " fill-opacity="1" fill-rule="nonzero"/><path fill="#ffffff" d="M 565.589844 370.617188 L 554.171875 370.617188 L 554.171875 359.1875 L 565.589844 359.1875 L 565.589844 370.617188 " fill-opacity="1" fill-rule="nonzero"/><path fill="#ffffff" d="M 565.589844 347.761719 L 554.171875 347.761719 L 554.171875 336.332031 L 565.589844 336.332031 L 565.589844 347.761719 " fill-opacity="1" fill-rule="nonzero"/><path fill="#ffffff" d="M 565.605469 324.902344 L 554.1875 324.902344 L 554.1875 313.472656 L 565.605469 313.472656 L 565.605469 324.902344 " fill-opacity="1" fill-rule="nonzero"/><path fill="#ffffff" d="M 565.605469 336.332031 L 554.1875 336.332031 L 554.1875 324.902344 L 565.605469 324.902344 L 565.605469 336.332031 " fill-opacity="1" fill-rule="nonzero"/><path fill="#ffffff" d="M 565.578125 313.472656 L 554.15625 313.472656 L 554.15625 302.046875 L 565.578125 302.046875 L 565.578125 313.472656 " fill-opacity="1" fill-rule="nonzero"/><path fill="#ffffff" d="M 554.171875 313.472656 L 542.753906 313.472656 L 542.753906 302.046875 L 554.171875 302.046875 L 554.171875 313.472656 " fill-opacity="1" fill-rule="nonzero"/><path fill="#ffffff" d="M 554.140625 302.046875 L 542.722656 302.046875 L 542.722656 290.617188 L 554.140625 290.617188 L 554.140625 302.046875 " fill-opacity="1" fill-rule="nonzero"/><path fill="#ffffff" d="M 554.171875 324.902344 L 542.753906 324.902344 L 542.753906 313.472656 L 554.171875 313.472656 L 554.171875 324.902344 " fill-opacity="1" fill-rule="nonzero"/></svg>