<svg xmlns="http://www.w3.org/2000/svg" xmlns:xlink="http://www.w3.org/1999/xlink" zoomAndPan="magnify" preserveAspectRatio="xMidYMid meet" version="1.0" viewBox="447.25 169.32 65.5 240.02"><defs><clipPath id="9d01a71180"><path d="M 447.273438 169.339844 L 512.523438 169.339844 L 512.523438 409.339844 L 447.273438 409.339844 Z M 447.273438 169.339844 " clip-rule="nonzero"/></clipPath><clipPath id="ce9b453ff5"><path d="M 447.273438 169.339844 L 497 169.339844 L 497 409.339844 L 447.273438 409.339844 Z M 447.273438 169.339844 " clip-rule="nonzero"/></clipPath><clipPath id="2b06514f77"><path d="M 469 174 L 512.523438 174 L 512.523438 404 L 469 404 Z M 469 174 " clip-rule="nonzero"/></clipPath></defs><g clip-path="url(#9d01a71180)"><path fill="#000000" d="M 512.722656 185.710938 L 512.722656 360.242188 L 507.269531 360.242188 L 507.269531 376.605469 L 501.8125 376.605469 L 501.8125 387.511719 L 496.359375 387.511719 L 496.359375 392.96875 L 490.90625 392.96875 L 490.90625 403.875 L 485.453125 403.875 L 485.453125 409.328125 L 474.542969 409.328125 L 474.542969 403.875 L 469.089844 403.875 L 469.089844 392.96875 L 463.636719 392.96875 L 463.636719 387.511719 L 458.179688 387.511719 L 458.179688 376.605469 L 452.726562 376.605469 L 452.726562 360.242188 L 447.273438 360.242188 L 447.273438 185.710938 L 452.726562 185.710938 L 452.726562 180.257812 L 458.179688 180.257812 L 458.179688 174.804688 L 463.636719 174.804688 L 463.636719 169.347656 L 496.359375 169.347656 L 496.359375 174.804688 L 501.8125 174.804688 L 501.8125 180.257812 L 507.269531 180.257812 L 507.269531 185.710938 Z M 512.722656 185.710938 " fill-opacity="1" fill-rule="nonzero"/></g><path fill="#fbfffe" d="M 501.8125 185.710938 L 501.8125 180.257812 L 496.359375 180.257812 L 496.359375 174.804688 L 463.636719 174.804688 L 463.636719 180.257812 L 458.179688 180.257812 L 458.179688 185.710938 L 452.726562 185.710938 L 452.726562 191.164062 L 458.179688 191.164062 L 458.179688 196.621094 L 463.636719 196.621094 L 463.636719 202.074219 L 496.359375 202.074219 L 496.359375 196.621094 L 501.8125 196.621094 L 501.8125 191.164062 L 507.269531 191.164062 L 507.269531 185.710938 Z M 496.359375 191.164062 L 490.90625 191.164062 L 490.90625 196.621094 L 469.089844 196.621094 L 469.089844 191.164062 L 463.636719 191.164062 L 463.636719 185.710938 L 469.089844 185.710938 L 469.089844 180.257812 L 490.90625 180.257812 L 490.90625 185.710938 L 496.359375 185.710938 Z M 501.8125 371.152344 L 501.8125 376.605469 L 496.359375 376.605469 L 496.359375 387.511719 L 490.90625 387.511719 L 490.90625 392.96875 L 485.453125 392.96875 L 485.453125 403.875 L 474.542969 403.875 L 474.542969 392.96875 L 469.089844 392.96875 L 469.089844 387.511719 L 463.636719 387.511719 L 463.636719 376.605469 L 458.179688 376.605469 L 458.179688 371.152344 L 469.089844 371.152344 L 469.089844 376.605469 L 474.542969 376.605469 L 474.542969 382.058594 L 485.453125 382.058594 L 485.453125 376.605469 L 490.90625 376.605469 L 490.90625 371.152344 Z M 501.8125 371.152344 " fill-opacity="1" fill-rule="nonzero"/><path fill="#d9d9d9" d="M 463.636719 202.074219 L 463.636719 365.695312 L 458.179688 365.695312 L 458.179688 360.242188 L 452.726562 360.242188 L 452.726562 196.621094 L 458.179688 196.621094 L 458.179688 202.074219 Z M 469.089844 207.527344 L 469.089844 371.152344 L 474.542969 371.152344 L 474.542969 376.605469 L 485.453125 376.605469 L 485.453125 371.152344 L 490.90625 371.152344 L 490.90625 207.527344 Z M 501.8125 196.621094 L 501.8125 202.074219 L 496.359375 202.074219 L 496.359375 365.695312 L 501.8125 365.695312 L 501.8125 360.242188 L 507.269531 360.242188 L 507.269531 196.621094 Z M 501.8125 196.621094 " fill-opacity="1" fill-rule="nonzero"/><path fill="#fbfffe" d="M 507.269531 207.527344 L 501.8125 207.527344 L 501.8125 202.074219 L 507.269531 202.074219 Z M 507.269531 212.980469 L 501.8125 212.980469 L 501.8125 218.4375 L 507.269531 218.4375 Z M 507.269531 223.890625 L 501.8125 223.890625 L 501.8125 229.34375 L 507.269531 229.34375 Z M 507.269531 234.796875 L 501.8125 234.796875 L 501.8125 240.253906 L 507.269531 240.253906 Z M 507.269531 245.707031 L 501.8125 245.707031 L 501.8125 251.160156 L 507.269531 251.160156 Z M 507.269531 256.613281 L 501.8125 256.613281 L 501.8125 262.070312 L 507.269531 262.070312 Z M 507.269531 267.523438 L 501.8125 267.523438 L 501.8125 272.976562 L 507.269531 272.976562 Z M 507.269531 278.429688 L 501.8125 278.429688 L 501.8125 283.886719 L 507.269531 283.886719 Z M 507.269531 289.339844 L 501.8125 289.339844 L 501.8125 294.792969 L 507.269531 294.792969 Z M 507.269531 300.246094 L 501.8125 300.246094 L 501.8125 305.703125 L 507.269531 305.703125 Z M 507.269531 311.15625 L 501.8125 311.15625 L 501.8125 316.609375 L 507.269531 316.609375 Z M 507.269531 322.0625 L 501.8125 322.0625 L 501.8125 327.519531 L 507.269531 327.519531 Z M 507.269531 332.972656 L 501.8125 332.972656 L 501.8125 338.425781 L 507.269531 338.425781 Z M 507.269531 343.878906 L 501.8125 343.878906 L 501.8125 349.335938 L 507.269531 349.335938 Z M 507.269531 354.789062 L 501.8125 354.789062 L 501.8125 360.242188 L 507.269531 360.242188 Z M 501.8125 360.242188 L 496.359375 360.242188 L 496.359375 365.695312 L 501.8125 365.695312 Z M 501.8125 349.335938 L 496.359375 349.335938 L 496.359375 354.789062 L 501.8125 354.789062 Z M 501.8125 338.425781 L 496.359375 338.425781 L 496.359375 343.878906 L 501.8125 343.878906 Z M 501.8125 327.519531 L 496.359375 327.519531 L 496.359375 332.972656 L 501.8125 332.972656 Z M 501.8125 316.609375 L 496.359375 316.609375 L 496.359375 322.0625 L 501.8125 322.0625 Z M 501.8125 305.703125 L 496.359375 305.703125 L 496.359375 311.15625 L 501.8125 311.15625 Z M 501.8125 294.792969 L 496.359375 294.792969 L 496.359375 300.246094 L 501.8125 300.246094 Z M 501.8125 283.886719 L 496.359375 283.886719 L 496.359375 289.339844 L 501.8125 289.339844 Z M 501.8125 272.976562 L 496.359375 272.976562 L 496.359375 278.429688 L 501.8125 278.429688 Z M 501.8125 262.070312 L 496.359375 262.070312 L 496.359375 267.523438 L 501.8125 267.523438 Z M 501.8125 251.160156 L 496.359375 251.160156 L 496.359375 256.613281 L 501.8125 256.613281 Z M 501.8125 240.253906 L 496.359375 240.253906 L 496.359375 245.707031 L 501.8125 245.707031 Z M 501.8125 229.34375 L 496.359375 229.34375 L 496.359375 234.796875 L 501.8125 234.796875 Z M 501.8125 218.4375 L 496.359375 218.4375 L 496.359375 223.890625 L 501.8125 223.890625 Z M 501.8125 207.527344 L 496.359375 207.527344 L 496.359375 212.980469 L 501.8125 212.980469 Z M 485.453125 207.527344 L 479.996094 207.527344 L 479.996094 212.980469 L 485.453125 212.980469 Z M 490.90625 212.980469 L 485.453125 212.980469 L 485.453125 218.4375 L 490.90625 218.4375 Z M 485.453125 218.4375 L 479.996094 218.4375 L 479.996094 223.890625 L 485.453125 223.890625 Z M 490.90625 223.890625 L 485.453125 223.890625 L 485.453125 229.34375 L 490.90625 229.34375 Z M 485.453125 229.34375 L 479.996094 229.34375 L 479.996094 234.796875 L 485.453125 234.796875 Z M 490.90625 234.796875 L 485.453125 234.796875 L 485.453125 240.253906 L 490.90625 240.253906 Z M 485.453125 240.253906 L 479.996094 240.253906 L 479.996094 245.707031 L 485.453125 245.707031 Z M 490.90625 245.707031 L 485.453125 245.707031 L 485.453125 251.160156 L 490.90625 251.160156 Z M 485.453125 251.160156 L 479.996094 251.160156 L 479.996094 256.613281 L 485.453125 256.613281 Z M 490.90625 256.613281 L 485.453125 256.613281 L 485.453125 262.070312 L 490.90625 262.070312 Z M 485.453125 262.070312 L 479.996094 262.070312 L 479.996094 267.523438 L 485.453125 267.523438 Z M 490.90625 267.523438 L 485.453125 267.523438 L 485.453125 272.976562 L 490.90625 272.976562 Z M 485.453125 272.976562 L 479.996094 272.976562 L 479.996094 278.429688 L 485.453125 278.429688 Z M 490.90625 278.429688 L 485.453125 278.429688 L 485.453125 283.886719 L 490.90625 283.886719 Z M 485.453125 283.886719 L 479.996094 283.886719 L 479.996094 289.339844 L 485.453125 289.339844 Z M 490.90625 289.339844 L 485.453125 289.339844 L 485.453125 294.792969 L 490.90625 294.792969 Z M 485.453125 294.792969 L 479.996094 294.792969 L 479.996094 300.246094 L 485.453125 300.246094 Z M 490.90625 300.246094 L 485.453125 300.246094 L 485.453125 305.703125 L 490.90625 305.703125 Z M 485.453125 305.703125 L 479.996094 305.703125 L 479.996094 311.15625 L 485.453125 311.15625 Z M 490.90625 311.15625 L 485.453125 311.15625 L 485.453125 316.609375 L 490.90625 316.609375 Z M 485.453125 316.609375 L 479.996094 316.609375 L 479.996094 322.0625 L 485.453125 322.0625 Z M 490.90625 322.0625 L 485.453125 322.0625 L 485.453125 327.519531 L 490.90625 327.519531 Z M 485.453125 327.519531 L 479.996094 327.519531 L 479.996094 332.972656 L 485.453125 332.972656 Z M 490.90625 332.972656 L 485.453125 332.972656 L 485.453125 338.425781 L 490.90625 338.425781 Z M 485.453125 338.425781 L 479.996094 338.425781 L 479.996094 343.878906 L 485.453125 343.878906 Z M 490.90625 343.878906 L 485.453125 343.878906 L 485.453125 349.335938 L 490.90625 349.335938 Z M 485.453125 349.335938 L 479.996094 349.335938 L 479.996094 354.789062 L 485.453125 354.789062 Z M 490.90625 354.789062 L 485.453125 354.789062 L 485.453125 360.242188 L 490.90625 360.242188 Z M 485.453125 360.242188 L 479.996094 360.242188 L 479.996094 365.695312 L 485.453125 365.695312 Z M 485.453125 371.152344 L 479.996094 371.152344 L 479.996094 376.605469 L 485.453125 376.605469 Z M 490.90625 365.695312 L 485.453125 365.695312 L 485.453125 371.152344 L 490.90625 371.152344 Z M 490.90625 376.605469 L 485.453125 376.605469 L 485.453125 382.058594 L 490.90625 382.058594 Z M 490.90625 387.511719 L 485.453125 387.511719 L 485.453125 392.96875 L 490.90625 392.96875 Z M 485.453125 392.96875 L 479.996094 392.96875 L 479.996094 398.421875 L 485.453125 398.421875 Z M 485.453125 382.058594 L 479.996094 382.058594 L 479.996094 387.511719 L 485.453125 387.511719 Z M 507.269531 185.710938 L 501.8125 185.710938 L 501.8125 191.164062 L 507.269531 191.164062 Z M 501.8125 180.257812 L 496.359375 180.257812 L 496.359375 185.710938 L 501.8125 185.710938 Z M 501.8125 191.164062 L 496.359375 191.164062 L 496.359375 196.621094 L 501.8125 196.621094 Z M 496.359375 196.621094 L 490.90625 196.621094 L 490.90625 202.074219 L 496.359375 202.074219 Z M 496.359375 174.804688 L 490.90625 174.804688 L 490.90625 180.257812 L 496.359375 180.257812 Z M 485.453125 196.621094 L 479.996094 196.621094 L 479.996094 202.074219 L 485.453125 202.074219 Z M 485.453125 174.804688 L 479.996094 174.804688 L 479.996094 180.257812 L 485.453125 180.257812 Z M 496.359375 382.058594 L 490.90625 382.058594 L 490.90625 387.511719 L 496.359375 387.511719 Z M 496.359375 371.152344 L 490.90625 371.152344 L 490.90625 376.605469 L 496.359375 376.605469 Z M 496.359375 371.152344 " fill-opacity="1" fill-rule="nonzero"/><g clip-path="url(#ce9b453ff5)"><path fill="#000000" d="M 496.359375 169.347656 L 496.359375 174.804688 L 463.636719 174.804688 L 463.636719 169.347656 Z M 458.179688 180.257812 L 463.636719 180.257812 L 463.636719 174.804688 L 458.179688 174.804688 Z M 452.726562 185.710938 L 458.179688 185.710938 L 458.179688 180.257812 L 452.726562 180.257812 Z M 447.273438 360.242188 L 452.726562 360.242188 L 452.726562 196.621094 L 458.179688 196.621094 L 458.179688 191.164062 L 452.726562 191.164062 L 452.726562 185.710938 L 447.273438 185.710938 Z M 463.636719 387.511719 L 463.636719 376.605469 L 458.179688 376.605469 L 458.179688 387.511719 Z M 469.089844 392.96875 L 469.089844 387.511719 L 463.636719 387.511719 L 463.636719 392.96875 Z M 474.542969 403.875 L 474.542969 392.96875 L 469.089844 392.96875 L 469.089844 403.875 Z M 485.453125 409.328125 L 485.453125 403.875 L 474.542969 403.875 L 474.542969 409.328125 Z M 490.90625 392.96875 L 485.453125 392.96875 L 485.453125 403.875 L 490.90625 403.875 Z M 479.996094 382.058594 L 479.996094 376.605469 L 474.542969 376.605469 L 474.542969 382.058594 Z M 474.542969 376.605469 L 474.542969 371.152344 L 469.089844 371.152344 L 469.089844 376.605469 Z M 463.636719 202.074219 L 463.636719 196.621094 L 458.179688 196.621094 L 458.179688 202.074219 Z M 463.636719 185.710938 L 463.636719 191.164062 L 469.089844 191.164062 L 469.089844 185.710938 Z M 490.90625 191.164062 L 496.359375 191.164062 L 496.359375 185.710938 L 490.90625 185.710938 Z M 490.90625 180.257812 L 469.089844 180.257812 L 469.089844 185.710938 L 490.90625 185.710938 Z M 469.089844 196.621094 L 490.90625 196.621094 L 490.90625 191.164062 L 469.089844 191.164062 Z M 463.636719 365.695312 L 458.179688 365.695312 L 458.179688 360.242188 L 452.726562 360.242188 L 452.726562 376.605469 L 458.179688 376.605469 L 458.179688 371.152344 L 469.089844 371.152344 L 469.089844 207.527344 L 490.90625 207.527344 L 490.90625 202.074219 L 463.636719 202.074219 Z M 496.359375 365.695312 L 496.359375 207.527344 L 490.90625 207.527344 L 490.90625 365.695312 Z M 496.359375 365.695312 " fill-opacity="1" fill-rule="nonzero"/></g><g clip-path="url(#2b06514f77)"><path fill="#000000" d="M 501.8125 174.804688 L 501.8125 180.257812 L 496.359375 180.257812 L 496.359375 174.804688 Z M 501.8125 180.257812 L 501.8125 185.710938 L 507.269531 185.710938 L 507.269531 180.257812 Z M 507.269531 185.710938 L 507.269531 191.164062 L 501.8125 191.164062 L 501.8125 196.621094 L 507.269531 196.621094 L 507.269531 360.242188 L 512.722656 360.242188 L 512.722656 185.710938 Z M 501.8125 365.695312 L 490.90625 365.695312 L 490.90625 371.152344 L 501.8125 371.152344 L 501.8125 376.605469 L 507.269531 376.605469 L 507.269531 360.242188 L 501.8125 360.242188 Z M 496.359375 387.511719 L 501.8125 387.511719 L 501.8125 376.605469 L 496.359375 376.605469 Z M 490.90625 392.96875 L 496.359375 392.96875 L 496.359375 387.511719 L 490.90625 387.511719 Z M 485.453125 376.605469 L 490.90625 376.605469 L 490.90625 371.152344 L 485.453125 371.152344 Z M 479.996094 382.058594 L 485.453125 382.058594 L 485.453125 376.605469 L 479.996094 376.605469 Z M 496.359375 202.074219 L 501.8125 202.074219 L 501.8125 196.621094 L 496.359375 196.621094 Z M 490.90625 207.527344 L 496.359375 207.527344 L 496.359375 202.074219 L 490.90625 202.074219 Z M 474.542969 403.875 L 485.453125 403.875 L 485.453125 398.421875 L 474.542969 398.421875 Z M 490.90625 185.710938 L 469.089844 185.710938 L 469.089844 191.164062 L 490.90625 191.164062 Z M 490.90625 185.710938 " fill-opacity="1" fill-rule="nonzero"/></g></svg>