<svg xmlns="http://www.w3.org/2000/svg" xmlns:xlink="http://www.w3.org/1999/xlink" zoomAndPan="magnify" preserveAspectRatio="xMidYMid meet" version="1.0" viewBox="409.62 227.62 113.08 192.77"><defs><clipPath id="ee7f5950e4"><path d="M 409.527344 227.621094 L 522.777344 227.621094 L 522.777344 420.371094 L 409.527344 420.371094 Z M 409.527344 227.621094 " clip-rule="nonzero"/></clipPath><clipPath id="007223c733"><path d="M 409.527344 227.621094 L 522.777344 227.621094 L 522.777344 420.371094 L 409.527344 420.371094 Z M 409.527344 227.621094 " clip-rule="nonzero"/></clipPath></defs><g clip-path="url(#ee7f5950e4)"><path fill="#000000" d="M 516.027344 333.96875 L 516.027344 327.320312 L 509.378906 327.320312 L 509.378906 320.675781 L 502.726562 320.675781 L 502.726562 314.027344 L 496.078125 314.027344 L 496.078125 307.382812 L 489.425781 307.382812 L 489.425781 300.734375 L 482.777344 300.734375 L 482.777344 294.089844 L 476.128906 294.089844 L 476.128906 287.441406 L 469.476562 287.441406 L 469.476562 280.796875 L 462.828125 280.796875 L 462.828125 274.148438 L 456.175781 274.148438 L 456.175781 267.503906 L 449.527344 267.503906 L 449.527344 260.855469 L 442.875 260.855469 L 442.875 254.207031 L 436.226562 254.207031 L 436.226562 247.5625 L 429.578125 247.5625 L 429.578125 240.914062 L 422.925781 240.914062 L 422.925781 234.269531 L 416.277344 234.269531 L 416.277344 227.621094 L 409.625 227.621094 L 409.625 387.140625 L 422.925781 387.140625 L 422.925781 380.492188 L 429.578125 380.492188 L 429.578125 373.847656 L 436.226562 373.847656 L 436.226562 367.199219 L 442.875 367.199219 L 442.875 360.554688 L 449.527344 360.554688 L 449.527344 367.199219 L 456.175781 367.199219 L 456.175781 380.492188 L 462.828125 380.492188 L 462.828125 393.785156 L 469.476562 393.785156 L 469.476562 407.078125 L 476.128906 407.078125 L 476.128906 420.371094 L 489.425781 420.371094 L 489.425781 413.726562 L 496.078125 413.726562 L 496.078125 407.078125 L 502.726562 407.078125 L 502.726562 393.785156 L 496.078125 393.785156 L 496.078125 380.492188 L 489.425781 380.492188 L 489.425781 367.199219 L 482.777344 367.199219 L 482.777344 353.90625 L 476.128906 353.90625 L 476.128906 347.261719 L 522.679688 347.261719 L 522.679688 333.96875 Z M 516.027344 333.96875 " fill-opacity="1" fill-rule="nonzero"/></g><path fill="#d1d3d4" d="M 416.277344 240.914062 L 422.925781 240.914062 L 516.027344 333.96875 L 516.027344 340.613281 L 469.476562 340.613281 L 496.078125 393.785156 L 496.078125 413.726562 L 482.777344 413.726562 L 476.128906 407.078125 L 456.175781 367.199219 L 449.527344 360.554688 L 442.875 360.554688 L 422.925781 380.492188 L 416.277344 380.492188 Z M 416.277344 240.914062 " fill-opacity="1" fill-rule="nonzero"/><path fill="#ffffff" d="M 429.578125 247.5625 L 429.578125 254.207031 L 422.925781 254.207031 L 422.925781 247.5625 Z M 429.578125 254.207031 L 429.578125 260.855469 L 436.226562 260.855469 L 436.226562 254.207031 Z M 436.226562 260.855469 L 436.226562 267.503906 L 442.875 267.503906 L 442.875 260.855469 Z M 442.875 267.503906 L 442.875 274.148438 L 449.527344 274.148438 L 449.527344 267.503906 Z M 449.527344 274.148438 L 449.527344 280.796875 L 456.175781 280.796875 L 456.175781 274.148438 Z M 456.175781 280.796875 L 456.175781 287.441406 L 462.828125 287.441406 L 462.828125 280.796875 Z M 462.828125 287.441406 L 462.828125 294.089844 L 469.476562 294.089844 L 469.476562 287.441406 Z M 469.476562 294.089844 L 469.476562 300.734375 L 476.128906 300.734375 L 476.128906 294.089844 Z M 476.128906 300.734375 L 476.128906 307.382812 L 482.777344 307.382812 L 482.777344 300.734375 Z M 482.777344 307.382812 L 482.777344 314.027344 L 489.425781 314.027344 L 489.425781 307.382812 Z M 489.425781 314.027344 L 489.425781 320.675781 L 496.078125 320.675781 L 496.078125 314.027344 Z M 496.078125 320.675781 L 496.078125 327.320312 L 502.726562 327.320312 L 502.726562 320.675781 Z M 516.027344 333.96875 L 509.378906 333.96875 L 509.378906 327.320312 L 502.726562 327.320312 L 502.726562 333.96875 L 469.476562 333.96875 L 469.476562 340.613281 L 516.027344 340.613281 Z M 476.128906 367.199219 L 476.128906 353.90625 L 469.476562 353.90625 L 469.476562 367.199219 Z M 462.828125 340.613281 L 462.828125 353.90625 L 469.476562 353.90625 L 469.476562 340.613281 Z M 482.777344 380.492188 L 482.777344 367.199219 L 476.128906 367.199219 L 476.128906 380.492188 Z M 489.425781 393.785156 L 489.425781 380.492188 L 482.777344 380.492188 L 482.777344 393.785156 Z M 496.078125 407.078125 L 496.078125 393.785156 L 489.425781 393.785156 L 489.425781 407.078125 Z M 496.078125 407.078125 " fill-opacity="1" fill-rule="nonzero"/><g clip-path="url(#007223c733)"><path fill="#000000" d="M 422.925781 247.5625 L 422.925781 240.914062 L 429.578125 240.914062 L 429.578125 247.5625 Z M 436.226562 254.207031 L 436.226562 247.5625 L 429.578125 247.5625 L 429.578125 254.207031 Z M 442.875 260.855469 L 442.875 254.207031 L 436.226562 254.207031 L 436.226562 260.855469 Z M 449.527344 267.503906 L 449.527344 260.855469 L 442.875 260.855469 L 442.875 267.503906 Z M 456.175781 274.148438 L 456.175781 267.503906 L 449.527344 267.503906 L 449.527344 274.148438 Z M 462.828125 280.796875 L 462.828125 274.148438 L 456.175781 274.148438 L 456.175781 280.796875 Z M 469.476562 287.441406 L 469.476562 280.796875 L 462.828125 280.796875 L 462.828125 287.441406 Z M 476.128906 294.089844 L 476.128906 287.441406 L 469.476562 287.441406 L 469.476562 294.089844 Z M 482.777344 300.734375 L 482.777344 294.089844 L 476.128906 294.089844 L 476.128906 300.734375 Z M 489.425781 307.382812 L 489.425781 300.734375 L 482.777344 300.734375 L 482.777344 307.382812 Z M 496.078125 314.027344 L 496.078125 307.382812 L 489.425781 307.382812 L 489.425781 314.027344 Z M 502.726562 320.675781 L 502.726562 314.027344 L 496.078125 314.027344 L 496.078125 320.675781 Z M 509.378906 327.320312 L 509.378906 320.675781 L 502.726562 320.675781 L 502.726562 327.320312 Z M 516.027344 333.96875 L 516.027344 327.320312 L 509.378906 327.320312 L 509.378906 333.96875 Z M 516.027344 333.96875 L 516.027344 340.613281 L 469.476562 340.613281 L 469.476562 353.90625 L 476.128906 353.90625 L 476.128906 367.199219 L 482.777344 367.199219 L 482.777344 353.90625 L 476.128906 353.90625 L 476.128906 347.261719 L 522.679688 347.261719 L 522.679688 333.96875 Z M 436.226562 367.199219 L 442.875 367.199219 L 442.875 360.554688 L 436.226562 360.554688 Z M 449.527344 353.90625 L 442.875 353.90625 L 442.875 360.554688 L 449.527344 360.554688 L 449.527344 367.199219 L 456.175781 367.199219 L 456.175781 353.90625 Z M 429.578125 373.847656 L 436.226562 373.847656 L 436.226562 367.199219 L 429.578125 367.199219 Z M 456.175781 367.199219 L 456.175781 380.492188 L 462.828125 380.492188 L 462.828125 367.199219 Z M 416.277344 373.847656 L 416.277344 240.914062 L 422.925781 240.914062 L 422.925781 234.269531 L 416.277344 234.269531 L 416.277344 227.621094 L 409.625 227.621094 L 409.625 387.140625 L 422.925781 387.140625 L 422.925781 380.492188 L 416.277344 380.492188 Z M 422.925781 380.492188 L 429.578125 380.492188 L 429.578125 373.847656 L 422.925781 373.847656 Z M 462.828125 380.492188 L 462.828125 393.785156 L 469.476562 393.785156 L 469.476562 380.492188 Z M 489.425781 380.492188 L 489.425781 367.199219 L 482.777344 367.199219 L 482.777344 380.492188 Z M 496.078125 393.785156 L 496.078125 380.492188 L 489.425781 380.492188 L 489.425781 393.785156 Z M 469.476562 393.785156 L 469.476562 407.078125 L 476.128906 407.078125 L 476.128906 393.785156 Z M 502.726562 407.078125 L 502.726562 393.785156 L 496.078125 393.785156 L 496.078125 407.078125 Z M 482.777344 407.078125 L 476.128906 407.078125 L 476.128906 420.371094 L 489.425781 420.371094 L 489.425781 413.726562 L 482.777344 413.726562 Z M 489.425781 413.726562 L 496.078125 413.726562 L 496.078125 407.078125 L 489.425781 407.078125 Z M 489.425781 413.726562 " fill-opacity="1" fill-rule="nonzero"/></g><path fill="#000000" d="M 429.578125 360.554688 L 436.226562 360.554688 L 436.226562 367.199219 L 429.578125 367.199219 Z M 436.226562 360.554688 L 442.875 360.554688 L 442.875 353.90625 L 436.226562 353.90625 Z M 442.875 347.261719 L 442.875 353.90625 L 456.175781 353.90625 L 456.175781 347.261719 Z M 456.175781 353.90625 L 456.175781 367.199219 L 462.828125 367.199219 L 462.828125 353.90625 Z M 462.828125 367.199219 L 462.828125 380.492188 L 469.476562 380.492188 L 469.476562 367.199219 Z M 469.476562 380.492188 L 469.476562 393.785156 L 476.128906 393.785156 L 476.128906 380.492188 Z M 476.128906 393.785156 L 476.128906 407.078125 L 482.777344 407.078125 L 482.777344 393.785156 Z M 482.777344 407.078125 L 482.777344 413.726562 L 489.425781 413.726562 L 489.425781 407.078125 Z M 422.925781 240.914062 L 416.277344 240.914062 L 416.277344 380.492188 L 422.925781 380.492188 L 422.925781 373.847656 L 429.578125 373.847656 L 429.578125 367.199219 L 422.925781 367.199219 Z M 422.925781 240.914062 " fill-opacity="0.3" fill-rule="nonzero"/></svg>