<svg xmlns="http://www.w3.org/2000/svg" xmlns:xlink="http://www.w3.org/1999/xlink" zoomAndPan="magnify" preserveAspectRatio="xMidYMid meet" version="1.0" viewBox="181.82 176.17 11.28 22.53"><defs><clipPath id="550ab0a4e5"><path d="M 186 176.175781 L 189 176.175781 L 189 178 L 186 178 Z M 186 176.175781 " clip-rule="nonzero"/></clipPath><clipPath id="aef80fe8d6"><path d="M 184 197 L 191 197 L 191 198.675781 L 184 198.675781 Z M 184 197 " clip-rule="nonzero"/></clipPath><clipPath id="ef073245ec"><path d="M 181.839844 180 L 193.089844 180 L 193.089844 197 L 181.839844 197 Z M 181.839844 180 " clip-rule="nonzero"/></clipPath></defs><path fill="#000000" d="M 182.964844 179.550781 L 184.089844 179.550781 L 184.089844 180.675781 L 182.964844 180.675781 Z M 182.964844 179.550781 " fill-opacity="1" fill-rule="nonzero"/><g clip-path="url(#550ab0a4e5)"><path fill="#000000" d="M 186.339844 176.175781 L 188.589844 176.175781 L 188.589844 177.300781 L 186.339844 177.300781 Z M 186.339844 176.175781 " fill-opacity="1" fill-rule="nonzero"/></g><path fill="#000000" d="M 190.839844 179.550781 L 191.964844 179.550781 L 191.964844 180.675781 L 190.839844 180.675781 Z M 190.839844 179.550781 " fill-opacity="1" fill-rule="nonzero"/><path fill="#000000" d="M 190.839844 179.550781 L 190.839844 178.425781 L 189.714844 178.425781 L 189.714844 177.300781 L 188.589844 177.300781 L 188.589844 178.425781 L 186.339844 178.425781 L 186.339844 177.300781 L 185.214844 177.300781 L 185.214844 178.425781 L 184.089844 178.425781 L 184.089844 179.550781 Z M 190.839844 179.550781 " fill-opacity="1" fill-rule="nonzero"/><path fill="#000000" d="M 182.964844 196.425781 L 184.089844 196.425781 L 184.089844 197.550781 L 182.964844 197.550781 Z M 182.964844 196.425781 " fill-opacity="1" fill-rule="nonzero"/><g clip-path="url(#aef80fe8d6)"><path fill="#000000" d="M 184.089844 197.550781 L 190.839844 197.550781 L 190.839844 198.675781 L 184.089844 198.675781 Z M 184.089844 197.550781 " fill-opacity="1" fill-rule="nonzero"/></g><path fill="#000000" d="M 190.839844 196.425781 L 191.964844 196.425781 L 191.964844 197.550781 L 190.839844 197.550781 Z M 190.839844 196.425781 " fill-opacity="1" fill-rule="nonzero"/><g clip-path="url(#ef073245ec)"><path fill="#000000" d="M 191.964844 180.675781 L 191.964844 181.800781 L 182.964844 181.800781 L 182.964844 180.675781 L 181.839844 180.675781 L 181.839844 196.425781 L 182.964844 196.425781 L 182.964844 195.300781 L 191.964844 195.300781 L 191.964844 196.425781 L 193.089844 196.425781 L 193.089844 180.675781 Z M 182.964844 194.175781 L 182.964844 182.925781 L 185.214844 182.925781 L 185.214844 194.175781 Z M 186.339844 194.175781 L 186.339844 182.925781 L 188.589844 182.925781 L 188.589844 194.175781 Z M 191.964844 194.175781 L 189.714844 194.175781 L 189.714844 182.925781 L 191.964844 182.925781 Z M 191.964844 194.175781 " fill-opacity="1" fill-rule="nonzero"/></g></svg>