<svg xmlns="http://www.w3.org/2000/svg" xmlns:xlink="http://www.w3.org/1999/xlink" zoomAndPan="magnify" preserveAspectRatio="xMidYMid meet" version="1.0" viewBox="402.23 209.07 155.73 238.38"><defs><clipPath id="2af2867eba"><path d="M 402.148438 209 L 558 209 L 558 448 L 402.148438 448 Z M 402.148438 209 " clip-rule="nonzero"/></clipPath></defs><g clip-path="url(#2af2867eba)"><path fill="#000000" d="M 429.726562 355.78125 L 429.726562 364.941406 L 420.566406 364.941406 L 420.566406 374.101562 L 411.40625 374.101562 L 411.40625 383.261719 L 402.246094 383.261719 L 402.246094 419.9375 L 411.40625 419.9375 L 411.40625 429.097656 L 420.566406 429.097656 L 420.566406 438.257812 L 429.726562 438.257812 L 429.726562 447.417969 L 466.371094 447.417969 L 466.371094 438.257812 L 475.53125 438.257812 L 475.53125 429.097656 L 484.691406 429.097656 L 484.691406 438.257812 L 493.851562 438.257812 L 493.851562 447.417969 L 530.492188 447.417969 L 530.492188 438.257812 L 539.652344 438.257812 L 539.652344 429.097656 L 548.78125 429.097656 L 548.78125 419.9375 L 557.941406 419.9375 L 557.941406 383.261719 L 548.78125 383.261719 L 548.78125 374.101562 L 539.621094 374.101562 L 539.621094 364.941406 L 530.460938 364.941406 L 530.460938 355.78125 L 502.980469 355.78125 L 502.980469 346.621094 L 512.140625 346.621094 L 512.140625 309.945312 L 521.300781 309.945312 L 521.300781 273.273438 L 530.460938 273.273438 L 530.460938 227.40625 L 521.300781 227.40625 L 521.300781 218.246094 L 512.140625 218.246094 L 512.140625 209.085938 L 502.980469 209.085938 L 502.980469 218.246094 L 493.820312 218.246094 L 493.820312 254.917969 L 484.660156 254.917969 L 484.660156 291.59375 L 475.5 291.59375 L 475.5 254.917969 L 466.335938 254.917969 L 466.335938 218.246094 L 457.175781 218.246094 L 457.175781 209.085938 L 448.015625 209.085938 L 448.015625 218.246094 L 438.855469 218.246094 L 438.855469 227.40625 L 429.695312 227.40625 L 429.695312 273.238281 L 438.855469 273.238281 L 438.855469 309.914062 L 448.015625 309.914062 L 448.015625 346.589844 L 457.175781 346.589844 L 457.175781 355.75 L 429.726562 355.75 Z M 502.980469 410.777344 L 502.980469 392.457031 L 521.300781 392.457031 L 521.300781 410.777344 Z M 438.890625 410.777344 L 438.890625 392.457031 L 457.210938 392.457031 L 457.210938 410.777344 Z M 438.890625 410.777344 " fill-opacity="1" fill-rule="evenodd"/></g><path fill="#2a2928" d="M 438.890625 364.941406 L 429.726562 364.941406 L 429.726562 374.101562 L 420.566406 374.101562 L 420.566406 383.261719 L 411.40625 383.261719 L 411.40625 419.9375 L 420.566406 419.9375 L 420.566406 429.097656 L 429.726562 429.097656 L 429.726562 438.257812 C 441.929688 438.257812 454.132812 438.257812 466.371094 438.257812 L 466.371094 429.097656 L 475.53125 429.097656 L 475.53125 419.9375 L 484.691406 419.9375 L 484.691406 392.421875 L 493.851562 392.421875 L 493.851562 346.589844 L 466.371094 346.589844 L 466.371094 364.910156 L 438.890625 364.910156 Z M 438.890625 419.9375 L 438.890625 410.777344 L 429.726562 410.777344 L 429.726562 392.457031 L 438.890625 392.457031 L 438.890625 383.292969 C 445.007812 383.292969 451.09375 383.292969 457.210938 383.292969 L 457.210938 392.457031 L 466.371094 392.457031 L 466.371094 410.777344 L 457.210938 410.777344 L 457.210938 419.9375 Z M 438.890625 419.9375 " fill-opacity="1" fill-rule="evenodd"/><path fill="#2a2928" d="M 521.300781 438.289062 L 530.460938 438.289062 L 530.460938 429.128906 L 539.621094 429.128906 L 539.621094 419.9375 L 548.78125 419.9375 L 548.78125 383.261719 L 539.621094 383.261719 L 539.621094 374.101562 L 530.460938 374.101562 L 530.460938 364.941406 L 493.820312 364.941406 L 493.820312 392.457031 L 484.660156 392.457031 L 484.660156 429.128906 L 493.820312 429.128906 L 493.820312 438.289062 Z M 475.53125 364.941406 L 475.53125 355.78125 L 484.691406 355.78125 L 484.691406 364.941406 Z M 512.140625 383.261719 L 521.300781 383.261719 L 521.300781 392.421875 L 530.460938 392.421875 L 530.460938 410.742188 L 521.300781 410.742188 L 521.300781 419.902344 C 515.183594 419.902344 509.097656 419.902344 502.980469 419.902344 L 502.980469 410.742188 L 493.820312 410.742188 L 493.820312 392.421875 L 502.980469 392.421875 L 502.980469 383.261719 Z M 512.140625 383.261719 " fill-opacity="1" fill-rule="evenodd"/><path fill="#b2b2b2" d="M 493.820312 346.589844 L 502.980469 346.589844 L 502.980469 309.945312 L 512.140625 309.945312 L 512.140625 273.273438 L 521.300781 273.273438 L 521.300781 227.40625 L 512.140625 227.40625 L 512.140625 218.246094 L 502.980469 218.246094 L 502.980469 254.917969 L 493.820312 254.917969 L 493.820312 291.59375 L 484.660156 291.59375 L 484.660156 328.265625 L 475.53125 328.265625 L 475.53125 346.589844 Z M 493.820312 346.589844 " fill-opacity="1" fill-rule="evenodd"/><path fill="#989798" d="M 466.371094 346.589844 L 475.53125 346.589844 L 475.53125 291.59375 L 466.371094 291.59375 L 466.371094 254.917969 L 457.210938 254.917969 L 457.210938 218.246094 L 448.050781 218.246094 L 448.050781 227.40625 L 438.890625 227.40625 L 438.890625 273.273438 L 448.050781 273.273438 L 448.050781 309.945312 L 457.210938 309.945312 L 457.210938 346.589844 Z M 466.371094 346.589844 " fill-opacity="1" fill-rule="evenodd"/></svg>