<svg xmlns="http://www.w3.org/2000/svg" xmlns:xlink="http://www.w3.org/1999/xlink" zoomAndPan="magnify" preserveAspectRatio="xMidYMid meet" version="1.0" viewBox="391.28 180 177.57 240"><defs><clipPath id="aafad7f982"><path d="M 391.199219 180 L 568.949219 180 L 568.949219 420 L 391.199219 420 Z M 391.199219 180 " clip-rule="nonzero"/></clipPath><clipPath id="1450f5ab9a"><path d="M 391.199219 180 L 564 180 L 564 415 L 391.199219 415 Z M 391.199219 180 " clip-rule="nonzero"/></clipPath><clipPath id="17a014c348"><path d="M 401 180 L 568.949219 180 L 568.949219 420 L 401 420 Z M 401 180 " clip-rule="nonzero"/></clipPath></defs><g clip-path="url(#aafad7f982)"><path fill="#7f7f7f" d="M 568.847656 221.738281 L 568.847656 258.261719 L 563.625 258.261719 L 563.625 263.476562 L 558.402344 263.476562 L 558.402344 367.824219 L 553.179688 367.824219 L 553.179688 373.042969 L 547.960938 373.042969 L 547.960938 388.695312 L 542.738281 388.695312 L 542.738281 393.914062 L 532.292969 393.914062 L 532.292969 399.128906 L 521.851562 399.128906 L 521.851562 404.347656 L 511.40625 404.347656 L 511.40625 409.566406 L 500.960938 409.566406 L 500.960938 414.78125 L 490.519531 414.78125 L 490.519531 420 L 469.632812 420 L 469.632812 414.78125 L 459.1875 414.78125 L 459.1875 409.566406 L 448.742188 409.566406 L 448.742188 404.347656 L 438.300781 404.347656 L 438.300781 399.128906 L 427.855469 399.128906 L 427.855469 393.914062 L 417.414062 393.914062 L 417.414062 388.695312 L 412.191406 388.695312 L 412.191406 373.042969 L 406.96875 373.042969 L 406.96875 367.824219 L 401.746094 367.824219 L 401.746094 263.476562 L 396.523438 263.476562 L 396.523438 258.261719 L 391.304688 258.261719 L 391.304688 221.738281 L 396.523438 221.738281 L 396.523438 216.523438 L 406.96875 216.523438 L 406.96875 211.304688 L 417.414062 211.304688 L 417.414062 206.085938 L 427.855469 206.085938 L 427.855469 200.871094 L 438.300781 200.871094 L 438.300781 195.652344 L 443.523438 195.652344 L 443.523438 185.21875 L 448.742188 185.21875 L 448.742188 180 L 459.1875 180 L 459.1875 185.21875 L 469.632812 185.21875 L 469.632812 180 L 490.519531 180 L 490.519531 185.21875 L 500.960938 185.21875 L 500.960938 190.433594 L 511.40625 190.433594 L 511.40625 195.652344 L 521.851562 195.652344 L 521.851562 200.871094 L 532.292969 200.871094 L 532.292969 206.085938 L 542.738281 206.085938 L 542.738281 211.304688 L 553.179688 211.304688 L 553.179688 216.523438 L 563.625 216.523438 L 563.625 221.738281 Z M 568.847656 221.738281 " fill-opacity="1" fill-rule="nonzero"/></g><path fill="#c0c0c0" d="M 542.738281 268.695312 L 542.738281 273.914062 L 532.292969 273.914062 L 532.292969 279.128906 L 521.851562 279.128906 L 521.851562 284.347656 L 511.40625 284.347656 L 511.40625 289.566406 L 500.960938 289.566406 L 500.960938 294.78125 L 490.519531 294.78125 L 490.519531 300 L 485.296875 300 L 485.296875 399.128906 L 490.519531 399.128906 L 490.519531 393.914062 L 500.960938 393.914062 L 500.960938 388.695312 L 511.40625 388.695312 L 511.40625 383.476562 L 521.851562 383.476562 L 521.851562 378.261719 L 532.292969 378.261719 L 532.292969 373.042969 L 547.960938 373.042969 L 547.960938 367.824219 L 553.179688 367.824219 L 553.179688 268.695312 Z M 511.40625 378.261719 L 506.183594 378.261719 L 506.183594 310.433594 L 500.960938 310.433594 L 500.960938 383.476562 L 495.742188 383.476562 L 495.742188 310.433594 L 500.960938 310.433594 L 500.960938 305.21875 L 506.183594 305.21875 L 506.183594 310.433594 L 511.40625 310.433594 Z M 542.738281 362.609375 L 537.515625 362.609375 L 537.515625 294.78125 L 532.292969 294.78125 L 532.292969 367.824219 L 527.070312 367.824219 L 527.070312 294.78125 L 532.292969 294.78125 L 532.292969 289.566406 L 537.515625 289.566406 L 537.515625 294.78125 L 542.738281 294.78125 Z M 480.074219 268.695312 L 480.074219 294.78125 L 469.632812 294.78125 L 469.632812 289.566406 L 459.1875 289.566406 L 459.1875 284.347656 L 448.742188 284.347656 L 448.742188 279.128906 L 438.300781 279.128906 L 438.300781 273.914062 L 427.855469 273.914062 L 427.855469 268.695312 L 417.414062 268.695312 L 417.414062 263.476562 L 406.96875 263.476562 L 406.96875 258.261719 L 396.523438 258.261719 L 396.523438 232.175781 L 406.96875 232.175781 L 406.96875 237.390625 L 417.414062 237.390625 L 417.414062 242.609375 L 427.855469 242.609375 L 427.855469 247.824219 L 438.300781 247.824219 L 438.300781 253.042969 L 448.742188 253.042969 L 448.742188 258.261719 L 459.1875 258.261719 L 459.1875 263.476562 L 469.632812 263.476562 L 469.632812 268.695312 Z M 563.625 232.175781 L 563.625 258.261719 L 553.179688 258.261719 L 553.179688 263.476562 L 542.738281 263.476562 L 542.738281 268.695312 L 532.292969 268.695312 L 532.292969 273.914062 L 521.851562 273.914062 L 521.851562 279.128906 L 511.40625 279.128906 L 511.40625 284.347656 L 500.960938 284.347656 L 500.960938 289.566406 L 490.519531 289.566406 L 490.519531 294.78125 L 485.296875 294.78125 L 485.296875 268.695312 L 490.519531 268.695312 L 490.519531 263.476562 L 500.960938 263.476562 L 500.960938 258.261719 L 511.40625 258.261719 L 511.40625 253.042969 L 521.851562 253.042969 L 521.851562 247.824219 L 532.292969 247.824219 L 532.292969 242.609375 L 542.738281 242.609375 L 542.738281 237.390625 L 553.179688 237.390625 L 553.179688 232.175781 Z M 563.625 221.738281 L 563.625 226.957031 L 553.179688 226.957031 L 553.179688 232.175781 L 542.738281 232.175781 L 542.738281 237.390625 L 532.292969 237.390625 L 532.292969 242.609375 L 521.851562 242.609375 L 521.851562 247.824219 L 511.40625 247.824219 L 511.40625 253.042969 L 500.960938 253.042969 L 500.960938 258.261719 L 490.519531 258.261719 L 490.519531 263.476562 L 469.632812 263.476562 L 469.632812 258.261719 L 459.1875 258.261719 L 459.1875 253.042969 L 448.742188 253.042969 L 448.742188 247.824219 L 438.300781 247.824219 L 438.300781 242.609375 L 427.855469 242.609375 L 427.855469 237.390625 L 417.414062 237.390625 L 417.414062 232.175781 L 406.96875 232.175781 L 406.96875 226.957031 L 396.523438 226.957031 L 396.523438 221.738281 L 406.96875 221.738281 L 406.96875 216.523438 L 417.414062 216.523438 L 417.414062 211.304688 L 427.855469 211.304688 L 427.855469 206.085938 L 438.300781 206.085938 L 438.300781 200.871094 L 443.523438 200.871094 L 443.523438 211.304688 L 448.742188 211.304688 L 448.742188 216.523438 L 459.1875 216.523438 L 459.1875 211.304688 L 474.851562 211.304688 L 474.851562 216.523438 L 485.296875 216.523438 L 485.296875 232.175781 L 490.519531 232.175781 L 490.519531 237.390625 L 500.960938 237.390625 L 500.960938 232.175781 L 506.183594 232.175781 L 506.183594 206.085938 L 500.960938 206.085938 L 500.960938 200.871094 L 490.519531 200.871094 L 490.519531 195.652344 L 480.074219 195.652344 L 480.074219 190.433594 L 469.632812 190.433594 L 469.632812 185.21875 L 490.519531 185.21875 L 490.519531 190.433594 L 500.960938 190.433594 L 500.960938 195.652344 L 511.40625 195.652344 L 511.40625 200.871094 L 521.851562 200.871094 L 521.851562 206.085938 L 532.292969 206.085938 L 532.292969 211.304688 L 542.738281 211.304688 L 542.738281 216.523438 L 553.179688 216.523438 L 553.179688 221.738281 Z M 500.960938 206.085938 L 500.960938 232.175781 L 490.519531 232.175781 L 490.519531 216.523438 L 485.296875 216.523438 L 485.296875 211.304688 L 474.851562 211.304688 L 474.851562 206.085938 L 464.410156 206.085938 L 464.410156 200.871094 L 453.964844 200.871094 L 453.964844 206.085938 L 459.1875 206.085938 L 459.1875 211.304688 L 448.742188 211.304688 L 448.742188 185.21875 L 459.1875 185.21875 L 459.1875 190.433594 L 469.632812 190.433594 L 469.632812 195.652344 L 480.074219 195.652344 L 480.074219 200.871094 L 490.519531 200.871094 L 490.519531 206.085938 Z M 480.074219 404.347656 L 480.074219 414.78125 L 469.632812 414.78125 L 469.632812 409.566406 L 459.1875 409.566406 L 459.1875 404.347656 L 448.742188 404.347656 L 448.742188 399.128906 L 438.300781 399.128906 L 438.300781 393.914062 L 427.855469 393.914062 L 427.855469 388.695312 L 417.414062 388.695312 L 417.414062 378.261719 L 427.855469 378.261719 L 427.855469 383.476562 L 438.300781 383.476562 L 438.300781 388.695312 L 448.742188 388.695312 L 448.742188 393.914062 L 459.1875 393.914062 L 459.1875 399.128906 L 469.632812 399.128906 L 469.632812 404.347656 Z M 542.738281 378.261719 L 542.738281 388.695312 L 532.292969 388.695312 L 532.292969 393.914062 L 521.851562 393.914062 L 521.851562 399.128906 L 511.40625 399.128906 L 511.40625 404.347656 L 500.960938 404.347656 L 500.960938 409.566406 L 490.519531 409.566406 L 490.519531 414.78125 L 485.296875 414.78125 L 485.296875 404.347656 L 490.519531 404.347656 L 490.519531 399.128906 L 500.960938 399.128906 L 500.960938 393.914062 L 511.40625 393.914062 L 511.40625 388.695312 L 521.851562 388.695312 L 521.851562 383.476562 L 532.292969 383.476562 L 532.292969 378.261719 Z M 469.632812 300 L 469.632812 294.78125 L 459.1875 294.78125 L 459.1875 289.566406 L 448.742188 289.566406 L 448.742188 284.347656 L 438.300781 284.347656 L 438.300781 279.128906 L 427.855469 279.128906 L 427.855469 273.914062 L 417.414062 273.914062 L 417.414062 268.695312 L 406.96875 268.695312 L 406.96875 367.824219 L 412.191406 367.824219 L 412.191406 373.042969 L 427.855469 373.042969 L 427.855469 378.261719 L 438.300781 378.261719 L 438.300781 383.476562 L 448.742188 383.476562 L 448.742188 388.695312 L 459.1875 388.695312 L 459.1875 393.914062 L 469.632812 393.914062 L 469.632812 399.128906 L 480.074219 399.128906 L 480.074219 300 Z M 433.078125 367.824219 L 427.855469 367.824219 L 427.855469 294.78125 L 422.632812 294.78125 L 422.632812 362.609375 L 417.414062 362.609375 L 417.414062 294.78125 L 422.632812 294.78125 L 422.632812 289.566406 L 427.855469 289.566406 L 427.855469 294.78125 L 433.078125 294.78125 Z M 464.410156 383.476562 L 459.1875 383.476562 L 459.1875 310.433594 L 453.964844 310.433594 L 453.964844 378.261719 L 448.742188 378.261719 L 448.742188 310.433594 L 453.964844 310.433594 L 453.964844 305.21875 L 459.1875 305.21875 L 459.1875 310.433594 L 464.410156 310.433594 Z M 464.410156 383.476562 " fill-opacity="1" fill-rule="nonzero"/><g clip-path="url(#1450f5ab9a)"><path fill="#7f7f7f" d="M 406.96875 221.738281 L 396.523438 221.738281 L 396.523438 216.523438 L 406.96875 216.523438 Z M 417.414062 211.304688 L 406.96875 211.304688 L 406.96875 216.523438 L 417.414062 216.523438 Z M 427.855469 206.085938 L 417.414062 206.085938 L 417.414062 211.304688 L 427.855469 211.304688 Z M 438.300781 200.871094 L 427.855469 200.871094 L 427.855469 206.085938 L 438.300781 206.085938 Z M 443.523438 195.652344 L 438.300781 195.652344 L 438.300781 200.871094 L 443.523438 200.871094 Z M 490.519531 180 L 469.632812 180 L 469.632812 185.21875 L 490.519531 185.21875 Z M 464.410156 200.871094 L 453.964844 200.871094 L 453.964844 206.085938 L 464.410156 206.085938 Z M 391.304688 221.738281 L 391.304688 258.261719 L 396.523438 258.261719 L 396.523438 221.738281 Z M 406.96875 258.261719 L 396.523438 258.261719 L 396.523438 263.476562 L 401.746094 263.476562 L 401.746094 367.824219 L 406.96875 367.824219 Z M 406.96875 367.824219 L 406.96875 373.042969 L 412.191406 373.042969 L 412.191406 367.824219 Z M 412.191406 388.695312 L 417.414062 388.695312 L 417.414062 373.042969 L 412.191406 373.042969 Z M 485.296875 399.128906 L 490.519531 399.128906 L 490.519531 393.914062 L 485.296875 393.914062 L 485.296875 388.695312 L 490.519531 388.695312 L 490.519531 383.476562 L 485.296875 383.476562 L 485.296875 378.261719 L 490.519531 378.261719 L 490.519531 373.042969 L 485.296875 373.042969 L 485.296875 367.824219 L 490.519531 367.824219 L 490.519531 362.609375 L 485.296875 362.609375 L 485.296875 357.390625 L 490.519531 357.390625 L 490.519531 352.175781 L 485.296875 352.175781 L 485.296875 346.957031 L 490.519531 346.957031 L 490.519531 341.738281 L 485.296875 341.738281 L 485.296875 336.523438 L 490.519531 336.523438 L 490.519531 331.304688 L 485.296875 331.304688 L 485.296875 326.085938 L 490.519531 326.085938 L 490.519531 320.871094 L 485.296875 320.871094 L 485.296875 315.652344 L 490.519531 315.652344 L 490.519531 310.433594 L 485.296875 310.433594 L 485.296875 305.21875 L 490.519531 305.21875 L 490.519531 300 L 480.074219 300 L 480.074219 414.78125 L 485.296875 414.78125 L 485.296875 409.566406 L 490.519531 409.566406 L 490.519531 404.347656 L 485.296875 404.347656 Z M 495.742188 409.566406 L 500.960938 409.566406 L 500.960938 404.347656 L 495.742188 404.347656 Z M 490.519531 399.128906 L 490.519531 404.347656 L 495.742188 404.347656 L 495.742188 399.128906 Z M 490.519531 393.914062 L 495.742188 393.914062 L 495.742188 388.695312 L 490.519531 388.695312 Z M 495.742188 388.695312 L 500.960938 388.695312 L 500.960938 383.476562 L 495.742188 383.476562 Z M 500.960938 378.261719 L 500.960938 383.476562 L 506.183594 383.476562 L 506.183594 378.261719 Z M 511.40625 373.042969 L 516.628906 373.042969 L 516.628906 367.824219 L 511.40625 367.824219 Z M 506.183594 388.695312 L 511.40625 388.695312 L 511.40625 383.476562 L 506.183594 383.476562 Z M 511.40625 383.476562 L 516.628906 383.476562 L 516.628906 378.261719 L 511.40625 378.261719 Z M 516.628906 378.261719 L 521.851562 378.261719 L 521.851562 373.042969 L 516.628906 373.042969 Z M 527.070312 373.042969 L 527.070312 367.824219 L 521.851562 367.824219 L 521.851562 373.042969 Z M 527.070312 378.261719 L 532.292969 378.261719 L 532.292969 373.042969 L 527.070312 373.042969 Z M 532.292969 373.042969 L 537.515625 373.042969 L 537.515625 367.824219 L 532.292969 367.824219 Z M 537.515625 362.609375 L 537.515625 367.824219 L 542.738281 367.824219 L 542.738281 362.609375 Z M 542.738281 373.042969 L 547.960938 373.042969 L 547.960938 367.824219 L 542.738281 367.824219 Z M 553.179688 367.824219 L 553.179688 362.609375 L 547.960938 362.609375 L 547.960938 367.824219 Z M 542.738281 362.609375 L 547.960938 362.609375 L 547.960938 357.390625 L 542.738281 357.390625 Z M 553.179688 357.390625 L 553.179688 352.175781 L 547.960938 352.175781 L 547.960938 357.390625 Z M 532.292969 357.390625 L 532.292969 362.609375 L 537.515625 362.609375 L 537.515625 357.390625 Z M 542.738281 352.175781 L 547.960938 352.175781 L 547.960938 346.957031 L 542.738281 346.957031 Z M 553.179688 346.957031 L 553.179688 341.738281 L 547.960938 341.738281 L 547.960938 346.957031 Z M 516.628906 367.824219 L 521.851562 367.824219 L 521.851562 362.609375 L 516.628906 362.609375 Z M 527.070312 362.609375 L 527.070312 357.390625 L 521.851562 357.390625 L 521.851562 362.609375 Z M 532.292969 352.175781 L 537.515625 352.175781 L 537.515625 346.957031 L 532.292969 346.957031 Z M 542.738281 341.738281 L 547.960938 341.738281 L 547.960938 336.523438 L 542.738281 336.523438 Z M 553.179688 336.523438 L 553.179688 331.304688 L 547.960938 331.304688 L 547.960938 336.523438 Z M 495.742188 378.261719 L 490.519531 378.261719 L 490.519531 383.476562 L 495.742188 383.476562 Z M 500.960938 373.042969 L 506.183594 373.042969 L 506.183594 367.824219 L 500.960938 367.824219 Z M 511.40625 362.609375 L 516.628906 362.609375 L 516.628906 357.390625 L 511.40625 357.390625 Z M 516.628906 357.390625 L 521.851562 357.390625 L 521.851562 352.175781 L 516.628906 352.175781 Z M 527.070312 352.175781 L 527.070312 346.957031 L 521.851562 346.957031 L 521.851562 352.175781 Z M 532.292969 341.738281 L 537.515625 341.738281 L 537.515625 336.523438 L 532.292969 336.523438 Z M 542.738281 331.304688 L 547.960938 331.304688 L 547.960938 326.085938 L 542.738281 326.085938 Z M 553.179688 326.085938 L 553.179688 320.871094 L 547.960938 320.871094 L 547.960938 326.085938 Z M 495.742188 367.824219 L 490.519531 367.824219 L 490.519531 373.042969 L 495.742188 373.042969 Z M 500.960938 362.609375 L 506.183594 362.609375 L 506.183594 357.390625 L 500.960938 357.390625 Z M 511.40625 352.175781 L 516.628906 352.175781 L 516.628906 346.957031 L 511.40625 346.957031 Z M 516.628906 346.957031 L 521.851562 346.957031 L 521.851562 341.738281 L 516.628906 341.738281 Z M 527.070312 341.738281 L 527.070312 336.523438 L 521.851562 336.523438 L 521.851562 341.738281 Z M 532.292969 331.304688 L 537.515625 331.304688 L 537.515625 326.085938 L 532.292969 326.085938 Z M 542.738281 320.871094 L 547.960938 320.871094 L 547.960938 315.652344 L 542.738281 315.652344 Z M 553.179688 315.652344 L 553.179688 310.433594 L 547.960938 310.433594 L 547.960938 315.652344 Z M 495.742188 357.390625 L 490.519531 357.390625 L 490.519531 362.609375 L 495.742188 362.609375 Z M 500.960938 352.175781 L 506.183594 352.175781 L 506.183594 346.957031 L 500.960938 346.957031 Z M 511.40625 341.738281 L 516.628906 341.738281 L 516.628906 336.523438 L 511.40625 336.523438 Z M 516.628906 336.523438 L 521.851562 336.523438 L 521.851562 331.304688 L 516.628906 331.304688 Z M 527.070312 331.304688 L 527.070312 326.085938 L 521.851562 326.085938 L 521.851562 331.304688 Z M 532.292969 320.871094 L 537.515625 320.871094 L 537.515625 315.652344 L 532.292969 315.652344 Z M 542.738281 310.433594 L 547.960938 310.433594 L 547.960938 305.21875 L 542.738281 305.21875 Z M 553.179688 305.21875 L 553.179688 300 L 547.960938 300 L 547.960938 305.21875 Z M 495.742188 346.957031 L 490.519531 346.957031 L 490.519531 352.175781 L 495.742188 352.175781 Z M 500.960938 341.738281 L 506.183594 341.738281 L 506.183594 336.523438 L 500.960938 336.523438 Z M 511.40625 331.304688 L 516.628906 331.304688 L 516.628906 326.085938 L 511.40625 326.085938 Z M 516.628906 326.085938 L 521.851562 326.085938 L 521.851562 320.871094 L 516.628906 320.871094 Z M 527.070312 320.871094 L 527.070312 315.652344 L 521.851562 315.652344 L 521.851562 320.871094 Z M 532.292969 310.433594 L 537.515625 310.433594 L 537.515625 305.21875 L 532.292969 305.21875 Z M 542.738281 300 L 547.960938 300 L 547.960938 294.78125 L 542.738281 294.78125 Z M 553.179688 294.78125 L 553.179688 289.566406 L 547.960938 289.566406 L 547.960938 294.78125 Z M 495.742188 336.523438 L 490.519531 336.523438 L 490.519531 341.738281 L 495.742188 341.738281 Z M 500.960938 331.304688 L 506.183594 331.304688 L 506.183594 326.085938 L 500.960938 326.085938 Z M 511.40625 320.871094 L 516.628906 320.871094 L 516.628906 315.652344 L 511.40625 315.652344 Z M 516.628906 315.652344 L 521.851562 315.652344 L 521.851562 310.433594 L 516.628906 310.433594 Z M 527.070312 310.433594 L 527.070312 305.21875 L 521.851562 305.21875 L 521.851562 310.433594 Z M 532.292969 300 L 537.515625 300 L 537.515625 294.78125 L 532.292969 294.78125 Z M 542.738281 289.566406 L 547.960938 289.566406 L 547.960938 284.347656 L 542.738281 284.347656 Z M 537.515625 294.78125 L 542.738281 294.78125 L 542.738281 289.566406 L 537.515625 289.566406 Z M 553.179688 284.347656 L 553.179688 279.128906 L 547.960938 279.128906 L 547.960938 284.347656 Z M 495.742188 326.085938 L 490.519531 326.085938 L 490.519531 331.304688 L 495.742188 331.304688 Z M 495.742188 315.652344 L 490.519531 315.652344 L 490.519531 320.871094 L 495.742188 320.871094 Z M 495.742188 305.21875 L 490.519531 305.21875 L 490.519531 310.433594 L 495.742188 310.433594 Z M 500.960938 300 L 495.742188 300 L 495.742188 305.21875 L 500.960938 305.21875 Z M 506.183594 294.78125 L 500.960938 294.78125 L 500.960938 300 L 506.183594 300 Z M 511.40625 289.566406 L 506.183594 289.566406 L 506.183594 294.78125 L 511.40625 294.78125 Z M 516.628906 289.566406 L 516.628906 284.347656 L 511.40625 284.347656 L 511.40625 289.566406 Z M 485.296875 289.566406 L 485.296875 284.347656 L 490.519531 284.347656 L 490.519531 279.128906 L 485.296875 279.128906 L 485.296875 273.914062 L 490.519531 273.914062 L 490.519531 268.695312 L 480.074219 268.695312 L 480.074219 294.78125 L 490.519531 294.78125 L 490.519531 289.566406 Z M 495.742188 263.476562 L 490.519531 263.476562 L 490.519531 268.695312 L 495.742188 268.695312 Z M 495.742188 273.914062 L 490.519531 273.914062 L 490.519531 279.128906 L 495.742188 279.128906 Z M 500.960938 273.914062 L 500.960938 268.695312 L 495.742188 268.695312 L 495.742188 273.914062 Z M 506.183594 263.476562 L 500.960938 263.476562 L 500.960938 268.695312 L 506.183594 268.695312 Z M 511.40625 258.261719 L 506.183594 258.261719 L 506.183594 263.476562 L 511.40625 263.476562 Z M 516.628906 253.042969 L 511.40625 253.042969 L 511.40625 258.261719 L 516.628906 258.261719 Z M 490.519531 289.566406 L 495.742188 289.566406 L 495.742188 284.347656 L 490.519531 284.347656 Z M 495.742188 284.347656 L 500.960938 284.347656 L 500.960938 279.128906 L 495.742188 279.128906 Z M 506.183594 284.347656 L 511.40625 284.347656 L 511.40625 279.128906 L 506.183594 279.128906 Z M 511.40625 279.128906 L 516.628906 279.128906 L 516.628906 273.914062 L 511.40625 273.914062 Z M 516.628906 273.914062 L 521.851562 273.914062 L 521.851562 268.695312 L 516.628906 268.695312 Z M 527.070312 273.914062 L 532.292969 273.914062 L 532.292969 268.695312 L 527.070312 268.695312 Z M 532.292969 268.695312 L 537.515625 268.695312 L 537.515625 263.476562 L 532.292969 263.476562 Z M 537.515625 263.476562 L 542.738281 263.476562 L 542.738281 258.261719 L 537.515625 258.261719 Z M 547.960938 263.476562 L 553.179688 263.476562 L 553.179688 258.261719 L 547.960938 258.261719 Z M 553.179688 258.261719 L 558.402344 258.261719 L 558.402344 253.042969 L 553.179688 253.042969 Z M 563.625 253.042969 L 563.625 247.824219 L 558.402344 247.824219 L 558.402344 253.042969 Z M 542.738281 253.042969 L 542.738281 258.261719 L 547.960938 258.261719 L 547.960938 253.042969 Z M 547.960938 253.042969 L 553.179688 253.042969 L 553.179688 247.824219 L 547.960938 247.824219 Z M 553.179688 242.609375 L 553.179688 247.824219 L 558.402344 247.824219 L 558.402344 242.609375 Z M 563.625 242.609375 L 563.625 237.390625 L 558.402344 237.390625 L 558.402344 242.609375 Z M 521.851562 268.695312 L 527.070312 268.695312 L 527.070312 263.476562 L 521.851562 263.476562 Z M 527.070312 263.476562 L 532.292969 263.476562 L 532.292969 258.261719 L 527.070312 258.261719 Z M 532.292969 258.261719 L 537.515625 258.261719 L 537.515625 253.042969 L 532.292969 253.042969 Z M 542.738281 253.042969 L 542.738281 247.824219 L 537.515625 247.824219 L 537.515625 253.042969 Z M 547.960938 242.609375 L 542.738281 242.609375 L 542.738281 247.824219 L 547.960938 247.824219 Z M 553.179688 237.390625 L 547.960938 237.390625 L 547.960938 242.609375 L 553.179688 242.609375 Z M 558.402344 232.175781 L 553.179688 232.175781 L 553.179688 237.390625 L 558.402344 237.390625 Z M 500.960938 273.914062 L 500.960938 279.128906 L 506.183594 279.128906 L 506.183594 273.914062 Z M 511.40625 268.695312 L 506.183594 268.695312 L 506.183594 273.914062 L 511.40625 273.914062 Z M 516.628906 263.476562 L 511.40625 263.476562 L 511.40625 268.695312 L 516.628906 268.695312 Z M 521.851562 263.476562 L 521.851562 258.261719 L 516.628906 258.261719 L 516.628906 263.476562 Z M 527.070312 253.042969 L 521.851562 253.042969 L 521.851562 258.261719 L 527.070312 258.261719 Z M 532.292969 247.824219 L 527.070312 247.824219 L 527.070312 253.042969 L 532.292969 253.042969 Z M 537.515625 242.609375 L 532.292969 242.609375 L 532.292969 247.824219 L 537.515625 247.824219 Z M 495.742188 294.78125 L 490.519531 294.78125 L 490.519531 300 L 495.742188 300 Z M 500.960938 320.871094 L 506.183594 320.871094 L 506.183594 315.652344 L 500.960938 315.652344 Z M 511.40625 310.433594 L 516.628906 310.433594 L 516.628906 305.21875 L 511.40625 305.21875 Z M 516.628906 305.21875 L 521.851562 305.21875 L 521.851562 300 L 516.628906 300 Z M 521.851562 300 L 527.070312 300 L 527.070312 294.78125 L 521.851562 294.78125 Z M 516.628906 300 L 516.628906 294.78125 L 511.40625 294.78125 L 511.40625 300 Z M 506.183594 300 L 506.183594 305.21875 L 511.40625 305.21875 L 511.40625 300 Z M 521.851562 294.78125 L 521.851562 289.566406 L 516.628906 289.566406 L 516.628906 294.78125 Z M 527.070312 284.347656 L 521.851562 284.347656 L 521.851562 289.566406 L 527.070312 289.566406 Z M 532.292969 279.128906 L 527.070312 279.128906 L 527.070312 284.347656 L 532.292969 284.347656 Z M 537.515625 279.128906 L 537.515625 273.914062 L 532.292969 273.914062 L 532.292969 279.128906 Z M 537.515625 289.566406 L 537.515625 284.347656 L 532.292969 284.347656 L 532.292969 289.566406 Z M 527.070312 289.566406 L 527.070312 294.78125 L 532.292969 294.78125 L 532.292969 289.566406 Z M 547.960938 273.914062 L 542.738281 273.914062 L 542.738281 279.128906 L 547.960938 279.128906 Z M 542.738281 284.347656 L 542.738281 279.128906 L 537.515625 279.128906 L 537.515625 284.347656 Z M 553.179688 268.695312 L 547.960938 268.695312 L 547.960938 273.914062 L 553.179688 273.914062 Z M 500.960938 404.347656 L 506.183594 404.347656 L 506.183594 399.128906 L 500.960938 399.128906 Z M 506.183594 399.128906 L 511.40625 399.128906 L 511.40625 393.914062 L 506.183594 393.914062 Z M 511.40625 388.695312 L 511.40625 393.914062 L 516.628906 393.914062 L 516.628906 388.695312 Z M 516.628906 399.128906 L 521.851562 399.128906 L 521.851562 393.914062 L 516.628906 393.914062 Z M 521.851562 393.914062 L 527.070312 393.914062 L 527.070312 388.695312 L 521.851562 388.695312 Z M 527.070312 388.695312 L 532.292969 388.695312 L 532.292969 383.476562 L 527.070312 383.476562 Z M 537.515625 383.476562 L 537.515625 378.261719 L 532.292969 378.261719 L 532.292969 383.476562 Z M 542.738281 388.695312 L 542.738281 383.476562 L 537.515625 383.476562 L 537.515625 388.695312 Z M 422.632812 367.824219 L 427.855469 367.824219 L 427.855469 294.78125 L 422.632812 294.78125 Z M 453.964844 383.476562 L 459.1875 383.476562 L 459.1875 310.433594 L 453.964844 310.433594 Z M 412.191406 268.695312 L 412.191406 273.914062 L 417.414062 273.914062 L 417.414062 268.695312 Z M 469.632812 305.21875 L 474.851562 305.21875 L 474.851562 300 L 469.632812 300 Z M 417.414062 273.914062 L 417.414062 279.128906 L 427.855469 279.128906 L 427.855469 273.914062 Z M 427.855469 279.128906 L 427.855469 284.347656 L 438.300781 284.347656 L 438.300781 279.128906 Z M 438.300781 284.347656 L 438.300781 289.566406 L 448.742188 289.566406 L 448.742188 284.347656 Z M 448.742188 289.566406 L 448.742188 294.78125 L 459.1875 294.78125 L 459.1875 289.566406 Z M 459.1875 294.78125 L 459.1875 300 L 469.632812 300 L 469.632812 294.78125 Z M 490.519531 242.609375 L 500.960938 242.609375 L 500.960938 237.390625 L 490.519531 237.390625 Z M 506.183594 232.175781 L 500.960938 232.175781 L 500.960938 237.390625 L 506.183594 237.390625 Z M 511.40625 206.085938 L 506.183594 206.085938 L 506.183594 232.175781 L 511.40625 232.175781 Z M 511.40625 206.085938 " fill-opacity="1" fill-rule="nonzero"/></g><g clip-path="url(#17a014c348)"><path fill="#000000" d="M 459.1875 190.433594 L 459.1875 185.21875 L 469.632812 185.21875 L 469.632812 190.433594 Z M 563.625 221.738281 L 563.625 226.957031 L 553.179688 226.957031 L 553.179688 232.175781 L 563.625 232.175781 L 563.625 258.261719 L 568.847656 258.261719 L 568.847656 221.738281 Z M 553.179688 216.523438 L 553.179688 221.738281 L 563.625 221.738281 L 563.625 216.523438 Z M 542.738281 211.304688 L 542.738281 216.523438 L 553.179688 216.523438 L 553.179688 211.304688 Z M 532.292969 206.085938 L 532.292969 211.304688 L 542.738281 211.304688 L 542.738281 206.085938 Z M 521.851562 200.871094 L 521.851562 206.085938 L 532.292969 206.085938 L 532.292969 200.871094 Z M 511.40625 195.652344 L 511.40625 200.871094 L 521.851562 200.871094 L 521.851562 195.652344 Z M 500.960938 190.433594 L 500.960938 195.652344 L 511.40625 195.652344 L 511.40625 190.433594 Z M 490.519531 185.21875 L 490.519531 190.433594 L 500.960938 190.433594 L 500.960938 185.21875 Z M 406.96875 263.476562 L 406.96875 268.695312 L 417.414062 268.695312 L 417.414062 263.476562 Z M 417.414062 268.695312 L 417.414062 273.914062 L 427.855469 273.914062 L 427.855469 268.695312 Z M 427.855469 273.914062 L 427.855469 279.128906 L 438.300781 279.128906 L 438.300781 273.914062 Z M 438.300781 279.128906 L 438.300781 284.347656 L 448.742188 284.347656 L 448.742188 279.128906 Z M 448.742188 284.347656 L 448.742188 289.566406 L 459.1875 289.566406 L 459.1875 284.347656 Z M 459.1875 289.566406 L 459.1875 294.78125 L 469.632812 294.78125 L 469.632812 289.566406 Z M 469.632812 300 L 490.519531 300 L 490.519531 294.78125 L 469.632812 294.78125 Z M 469.632812 420 L 490.519531 420 L 490.519531 414.78125 L 469.632812 414.78125 Z M 553.179688 263.476562 L 542.738281 263.476562 L 542.738281 268.695312 L 553.179688 268.695312 L 553.179688 367.824219 L 558.402344 367.824219 L 558.402344 263.476562 L 563.625 263.476562 L 563.625 258.261719 L 553.179688 258.261719 Z M 532.292969 273.914062 L 542.738281 273.914062 L 542.738281 268.695312 L 532.292969 268.695312 Z M 521.851562 279.128906 L 532.292969 279.128906 L 532.292969 273.914062 L 521.851562 273.914062 Z M 511.40625 284.347656 L 521.851562 284.347656 L 521.851562 279.128906 L 511.40625 279.128906 Z M 500.960938 289.566406 L 511.40625 289.566406 L 511.40625 284.347656 L 500.960938 284.347656 Z M 490.519531 294.78125 L 500.960938 294.78125 L 500.960938 289.566406 L 490.519531 289.566406 Z M 401.746094 226.957031 L 401.746094 232.175781 L 406.96875 232.175781 L 406.96875 226.957031 Z M 406.96875 232.175781 L 406.96875 237.390625 L 417.414062 237.390625 L 417.414062 232.175781 Z M 417.414062 237.390625 L 417.414062 242.609375 L 427.855469 242.609375 L 427.855469 237.390625 Z M 427.855469 242.609375 L 427.855469 247.824219 L 438.300781 247.824219 L 438.300781 242.609375 Z M 438.300781 247.824219 L 438.300781 253.042969 L 448.742188 253.042969 L 448.742188 247.824219 Z M 448.742188 253.042969 L 448.742188 258.261719 L 459.1875 258.261719 L 459.1875 253.042969 Z M 459.1875 258.261719 L 459.1875 263.476562 L 469.632812 263.476562 L 469.632812 258.261719 Z M 469.632812 268.695312 L 490.519531 268.695312 L 490.519531 263.476562 L 469.632812 263.476562 Z M 542.738281 237.390625 L 553.179688 237.390625 L 553.179688 232.175781 L 542.738281 232.175781 Z M 532.292969 242.609375 L 542.738281 242.609375 L 542.738281 237.390625 L 532.292969 237.390625 Z M 521.851562 247.824219 L 532.292969 247.824219 L 532.292969 242.609375 L 521.851562 242.609375 Z M 490.519531 237.390625 L 500.960938 237.390625 L 500.960938 232.175781 L 490.519531 232.175781 Z M 511.40625 253.042969 L 521.851562 253.042969 L 521.851562 247.824219 L 511.40625 247.824219 Z M 500.960938 258.261719 L 511.40625 258.261719 L 511.40625 253.042969 L 500.960938 253.042969 Z M 490.519531 263.476562 L 500.960938 263.476562 L 500.960938 258.261719 L 490.519531 258.261719 Z M 485.296875 216.523438 L 485.296875 232.175781 L 490.519531 232.175781 L 490.519531 216.523438 Z M 506.183594 232.175781 L 506.183594 206.085938 L 500.960938 206.085938 L 500.960938 232.175781 Z M 500.960938 206.085938 L 500.960938 200.871094 L 490.519531 200.871094 L 490.519531 206.085938 Z M 490.519531 200.871094 L 490.519531 195.652344 L 480.074219 195.652344 L 480.074219 200.871094 Z M 480.074219 195.652344 L 480.074219 190.433594 L 469.632812 190.433594 L 469.632812 195.652344 Z M 459.1875 180 L 448.742188 180 L 448.742188 185.21875 L 459.1875 185.21875 Z M 448.742188 216.523438 L 459.1875 216.523438 L 459.1875 211.304688 L 448.742188 211.304688 Z M 448.742188 185.21875 L 443.523438 185.21875 L 443.523438 211.304688 L 448.742188 211.304688 Z M 474.851562 211.304688 L 474.851562 216.523438 L 485.296875 216.523438 L 485.296875 211.304688 Z M 464.410156 206.085938 L 459.1875 206.085938 L 459.1875 211.304688 L 474.851562 211.304688 L 474.851562 206.085938 Z M 417.414062 388.695312 L 417.414062 393.914062 L 427.855469 393.914062 L 427.855469 388.695312 Z M 427.855469 393.914062 L 427.855469 399.128906 L 438.300781 399.128906 L 438.300781 393.914062 Z M 438.300781 399.128906 L 438.300781 404.347656 L 448.742188 404.347656 L 448.742188 399.128906 Z M 448.742188 404.347656 L 448.742188 409.566406 L 459.1875 409.566406 L 459.1875 404.347656 Z M 459.1875 409.566406 L 459.1875 414.78125 L 469.632812 414.78125 L 469.632812 409.566406 Z M 417.414062 373.042969 L 417.414062 378.261719 L 427.855469 378.261719 L 427.855469 373.042969 Z M 427.855469 378.261719 L 427.855469 383.476562 L 438.300781 383.476562 L 438.300781 378.261719 Z M 438.300781 383.476562 L 438.300781 388.695312 L 448.742188 388.695312 L 448.742188 383.476562 Z M 448.742188 388.695312 L 448.742188 393.914062 L 459.1875 393.914062 L 459.1875 388.695312 Z M 459.1875 393.914062 L 459.1875 399.128906 L 469.632812 399.128906 L 469.632812 393.914062 Z M 469.632812 404.347656 L 490.519531 404.347656 L 490.519531 399.128906 L 469.632812 399.128906 Z M 547.960938 373.042969 L 553.179688 373.042969 L 553.179688 367.824219 L 547.960938 367.824219 Z M 532.292969 393.914062 L 542.738281 393.914062 L 542.738281 388.695312 L 532.292969 388.695312 Z M 521.851562 399.128906 L 532.292969 399.128906 L 532.292969 393.914062 L 521.851562 393.914062 Z M 511.40625 404.347656 L 521.851562 404.347656 L 521.851562 399.128906 L 511.40625 399.128906 Z M 500.960938 409.566406 L 511.40625 409.566406 L 511.40625 404.347656 L 500.960938 404.347656 Z M 490.519531 414.78125 L 500.960938 414.78125 L 500.960938 409.566406 L 490.519531 409.566406 Z M 532.292969 373.042969 L 532.292969 378.261719 L 542.738281 378.261719 L 542.738281 388.695312 L 547.960938 388.695312 L 547.960938 373.042969 Z M 521.851562 383.476562 L 532.292969 383.476562 L 532.292969 378.261719 L 521.851562 378.261719 Z M 511.40625 388.695312 L 521.851562 388.695312 L 521.851562 383.476562 L 511.40625 383.476562 Z M 500.960938 393.914062 L 511.40625 393.914062 L 511.40625 388.695312 L 500.960938 388.695312 Z M 490.519531 399.128906 L 500.960938 399.128906 L 500.960938 393.914062 L 490.519531 393.914062 Z M 417.414062 362.609375 L 422.632812 362.609375 L 422.632812 294.78125 L 417.414062 294.78125 Z M 433.078125 367.824219 L 433.078125 294.78125 L 427.855469 294.78125 L 427.855469 367.824219 Z M 422.632812 289.566406 L 422.632812 294.78125 L 427.855469 294.78125 L 427.855469 289.566406 Z M 448.742188 378.261719 L 453.964844 378.261719 L 453.964844 310.433594 L 448.742188 310.433594 Z M 464.410156 383.476562 L 464.410156 310.433594 L 459.1875 310.433594 L 459.1875 383.476562 Z M 453.964844 305.21875 L 453.964844 310.433594 L 459.1875 310.433594 L 459.1875 305.21875 Z M 542.738281 362.609375 L 542.738281 294.78125 L 537.515625 294.78125 L 537.515625 362.609375 Z M 527.070312 367.824219 L 532.292969 367.824219 L 532.292969 294.78125 L 527.070312 294.78125 Z M 532.292969 289.566406 L 532.292969 294.78125 L 537.515625 294.78125 L 537.515625 289.566406 Z M 511.40625 378.261719 L 511.40625 310.433594 L 506.183594 310.433594 L 506.183594 378.261719 Z M 495.742188 383.476562 L 500.960938 383.476562 L 500.960938 310.433594 L 495.742188 310.433594 Z M 500.960938 305.21875 L 500.960938 310.433594 L 506.183594 310.433594 L 506.183594 305.21875 Z M 500.960938 305.21875 " fill-opacity="1" fill-rule="nonzero"/></g><path fill="#fefefe" d="M 412.191406 268.695312 L 412.191406 367.824219 L 406.96875 367.824219 L 406.96875 268.695312 Z M 412.191406 263.476562 L 412.191406 258.261719 L 406.96875 258.261719 L 406.96875 263.476562 Z M 396.523438 226.957031 L 396.523438 258.261719 L 406.96875 258.261719 L 406.96875 253.042969 L 401.746094 253.042969 L 401.746094 226.957031 L 406.96875 226.957031 L 406.96875 221.738281 L 396.523438 221.738281 Z M 406.96875 221.738281 L 417.414062 221.738281 L 417.414062 216.523438 L 406.96875 216.523438 Z M 417.414062 216.523438 L 427.855469 216.523438 L 427.855469 211.304688 L 417.414062 211.304688 Z M 427.855469 211.304688 L 438.300781 211.304688 L 438.300781 206.085938 L 427.855469 206.085938 Z M 438.300781 206.085938 L 443.523438 206.085938 L 443.523438 200.871094 L 438.300781 200.871094 Z M 469.632812 185.21875 L 469.632812 190.433594 L 490.519531 190.433594 L 490.519531 185.21875 Z M 448.742188 185.21875 L 448.742188 211.304688 L 453.964844 211.304688 L 453.964844 190.433594 L 459.1875 190.433594 L 459.1875 185.21875 Z M 417.414062 373.042969 L 417.414062 367.824219 L 412.191406 367.824219 L 412.191406 373.042969 Z M 417.414062 388.695312 L 422.632812 388.695312 L 422.632812 378.261719 L 417.414062 378.261719 Z M 474.851562 294.78125 L 480.074219 294.78125 L 480.074219 268.695312 L 474.851562 268.695312 Z M 474.851562 399.128906 L 480.074219 399.128906 L 480.074219 300 L 474.851562 300 Z M 474.851562 414.78125 L 480.074219 414.78125 L 480.074219 404.347656 L 474.851562 404.347656 Z M 474.851562 414.78125 " fill-opacity="1" fill-rule="nonzero"/></svg>